SplineFontDB: 3.0
FontName: DS-Digital
FullName: DS-Digital
FamilyName: DS-Digital
Weight: Book
Copyright: Font Typeface: DS-Digital. Created by Dusit Supasawat , DS-Font 1998. All Rights Reserved
Version: DS core font: V1.00 Sun Jan 03 08:19:29 1999
ItalicAngle: 0
UnderlinePosition: -85
UnderlineWidth: 70
Ascent: 880
Descent: 220
sfntRevision: 0x00010000
LayerCount: 2
Layer: 0 1 "Back"  1
Layer: 1 1 "Fore"  0
XUID: [1021 788 1322292000 7821693]
FSType: 2
OS2Version: 0
OS2_WeightWidthSlopeOnly: 0
OS2_UseTypoMetrics: 1
CreationTime: -1164963232
ModificationTime: 1358431780
PfmFamily: 81
TTFWeight: 400
TTFWidth: 5
LineGap: 0
VLineGap: 0
Panose: 0 0 0 0 0 0 0 0 0 0
OS2TypoAscent: 800
OS2TypoAOffset: 0
OS2TypoDescent: 200
OS2TypoDOffset: 0
OS2TypoLinegap: 0
OS2WinAscent: 900
OS2WinAOffset: 0
OS2WinDescent: 187
OS2WinDOffset: 0
HheadAscent: 900
HheadAOffset: 0
HheadDescent: -200
HheadDOffset: 0
OS2SubXSize: 700
OS2SubYSize: 650
OS2SubXOff: 0
OS2SubYOff: 143
OS2SupXSize: 700
OS2SupYSize: 650
OS2SupXOff: 0
OS2SupYOff: 453
OS2StrikeYSize: 50
OS2StrikeYPos: 259
OS2Vendor: 'Alts'
OS2UnicodeRanges: 00000000.00000000.00000000.00000000
DEI: 91125
TtTable: prep
NPUSHB
 14
 27
 27
 26
 26
 11
 11
 1
 1
 0
 0
 15
 15
 69
 1
SCANTYPE
PUSHW_1
 511
SCANCTRL
SROUND
RCVT
ROUND[Grey]
WCVTP
RTG
PUSHB_4
 2
 11
 70
 0
CALL
PUSHB_4
 3
 0
 70
 0
CALL
PUSHB_4
 4
 1
 70
 0
CALL
PUSHB_4
 5
 11
 70
 0
CALL
PUSHB_4
 6
 0
 70
 0
CALL
PUSHB_4
 7
 1
 70
 0
CALL
PUSHB_4
 8
 15
 70
 0
CALL
PUSHB_4
 9
 1
 70
 0
CALL
PUSHB_4
 10
 0
 70
 0
CALL
PUSHB_4
 12
 1
 70
 0
CALL
PUSHB_4
 13
 11
 70
 0
CALL
PUSHB_4
 14
 1
 70
 0
CALL
PUSHB_4
 16
 15
 70
 0
CALL
PUSHB_4
 17
 15
 70
 0
CALL
PUSHB_4
 18
 11
 70
 0
CALL
PUSHB_4
 19
 11
 70
 0
CALL
PUSHB_4
 20
 1
 70
 0
CALL
PUSHB_4
 21
 1
 70
 0
CALL
PUSHB_4
 22
 15
 70
 0
CALL
PUSHB_4
 23
 1
 70
 0
CALL
PUSHB_4
 24
 1
 70
 0
CALL
PUSHB_4
 25
 11
 70
 0
CALL
RCVT
ROUND[Grey]
WCVTP
RCVT
ROUND[Grey]
WCVTP
RCVT
ROUND[Grey]
WCVTP
RCVT
ROUND[Grey]
WCVTP
RCVT
ROUND[Grey]

StartChar: .notdef
Encoding: 65536 -1 0
Width: 550
Flags: W
LayerCount: 2
Fore
SplineSet
34 0 m 1,0,-1
 34 900 l 1,1,-1
 516 900 l 1,2,-1
 516 0 l 1,3,-1
 34 0 l 1,0,-1
482 34 m 1,4,-1
 482 866 l 1,5,-1
 68 866 l 1,6,-1
 68 34 l 1,7,-1
 482 34 l 1,4,-1
EndSplineSet
Validated: 1
EndChar

StartChar: exclam
Encoding: 33 33 4
Width: 287
Flags: W
LayerCount: 2
Fore
SplineSet
181 307 m 1,0,-1
 181 14 l 1,1,-1
 106 89 l 1,2,-1
 106 289 l 1,3,-1
 153 336 l 1,4,-1
 181 307 l 1,0,-1
106 411 m 1,5,-1
 106 625 l 1,6,-1
 181 700 l 1,7,-1
 181 392 l 1,8,-1
 153 364 l 1,9,-1
 106 411 l 1,5,-1
181 -14 m 1,10,-1
 106 -14 l 1,11,-1
 106 -89 l 1,12,-1
 181 -89 l 1,13,-1
 181 -14 l 1,10,-1
EndSplineSet
Validated: 9
EndChar

StartChar: quotedbl
Encoding: 34 34 5
Width: 306
Flags: W
LayerCount: 2
Fore
SplineSet
135 569 m 1,0,-1
 97 532 l 1,1,-1
 60 569 l 1,2,-1
 60 700 l 1,3,-1
 135 700 l 1,4,-1
 135 569 l 1,0,-1
247 569 m 1,5,-1
 209 532 l 1,6,-1
 172 569 l 1,7,-1
 172 700 l 1,8,-1
 247 700 l 1,9,-1
 247 569 l 1,5,-1
EndSplineSet
Validated: 1
EndChar

StartChar: numbersign
Encoding: 35 35 6
Width: 558
Flags: W
LayerCount: 2
Fore
SplineSet
218 315 m 1,0,-1
 181 278 l 1,1,-1
 143 315 l 1,2,-1
 143 385 l 1,3,-1
 181 422 l 1,4,-1
 218 385 l 1,5,-1
 218 315 l 1,0,-1
316 263 m 1,6,-1
 279 226 l 1,7,-1
 232 226 l 1,8,-1
 195 263 l 1,9,-1
 232 300 l 1,10,-1
 279 300 l 1,11,-1
 316 263 l 1,6,-1
167 263 m 1,12,-1
 129 226 l 1,13,-1
 50 226 l 1,14,-1
 13 263 l 1,15,-1
 50 300 l 1,16,-1
 129 300 l 1,17,-1
 167 263 l 1,12,-1
218 96 m 1,18,-1
 181 58 l 1,19,-1
 143 96 l 1,20,-1
 143 212 l 1,21,-1
 181 249 l 1,22,-1
 218 212 l 1,23,-1
 218 96 l 1,18,-1
367 315 m 1,24,-1
 330 278 l 1,25,-1
 293 315 l 1,26,-1
 293 385 l 1,27,-1
 330 422 l 1,28,-1
 367 385 l 1,29,-1
 367 350 l 1,30,-1
 367 315 l 1,24,-1
498 263 m 1,31,-1
 461 226 l 1,32,-1
 381 226 l 1,33,-1
 344 263 l 1,34,-1
 381 300 l 1,35,-1
 461 300 l 1,36,-1
 498 263 l 1,31,-1
367 96 m 1,37,-1
 330 58 l 1,38,-1
 293 96 l 1,39,-1
 293 212 l 1,40,-1
 330 249 l 1,41,-1
 367 212 l 1,42,-1
 367 96 l 1,37,-1
218 487 m 1,43,-1
 181 450 l 1,44,-1
 143 487 l 1,45,-1
 143 604 l 1,46,-1
 181 642 l 1,47,-1
 218 604 l 1,48,-1
 218 487 l 1,43,-1
316 436 m 1,49,-1
 279 399 l 1,50,-1
 232 399 l 1,51,-1
 195 436 l 1,52,-1
 232 473 l 1,53,-1
 279 473 l 1,54,-1
 316 436 l 1,49,-1
167 436 m 1,55,-1
 129 399 l 1,56,-1
 50 399 l 1,57,-1
 13 436 l 1,58,-1
 50 473 l 1,59,-1
 129 473 l 1,60,-1
 167 436 l 1,55,-1
367 487 m 1,61,-1
 330 450 l 1,62,-1
 293 487 l 1,63,-1
 293 604 l 1,64,-1
 330 642 l 1,65,-1
 367 604 l 1,66,-1
 367 487 l 1,61,-1
498 436 m 1,67,-1
 461 399 l 1,68,-1
 381 399 l 1,69,-1
 344 436 l 1,70,-1
 381 473 l 1,71,-1
 461 473 l 1,72,-1
 498 436 l 1,67,-1
EndSplineSet
Validated: 1
EndChar

StartChar: dollar
Encoding: 36 36 7
Width: 539
Flags: W
LayerCount: 2
Fore
SplineSet
479 663 m 1,0,-1
 442 625 l 1,1,-1
 148 625 l 1,2,-1
 111 663 l 1,3,-1
 148 700 l 1,4,-1
 442 700 l 1,5,-1
 479 663 l 1,0,-1
479 89 m 1,6,-1
 442 51 l 1,7,-1
 405 89 l 1,8,-1
 405 289 l 1,9,-1
 452 336 l 1,10,-1
 479 307 l 1,11,-1
 479 89 l 1,6,-1
135 411 m 1,12,-1
 88 364 l 1,13,-1
 60 392 l 1,14,-1
 60 611 l 1,15,-1
 97 649 l 1,16,-1
 135 611 l 1,17,-1
 135 411 l 1,12,-1
97 0 m 1,18,-1
 60 37 l 1,19,-1
 97 75 l 1,20,-1
 391 75 l 1,21,-1
 428 37 l 1,22,-1
 391 0 l 1,23,-1
 97 0 l 1,18,-1
400 387 m 1,24,-1
 438 350 l 1,25,-1
 400 313 l 1,26,-1
 139 313 l 1,27,-1
 102 350 l 1,28,-1
 139 387 l 1,29,-1
 400 387 l 1,24,-1
232 812 m 1,30,-1
 269 849 l 1,31,-1
 307 812 l 1,32,-1
 307 718 l 1,33,-1
 232 718 l 1,34,-1
 232 812 l 1,30,-1
232 -18 m 1,35,-1
 307 -18 l 1,36,-1
 307 -112 l 1,37,-1
 269 -149 l 1,38,-1
 232 -112 l 1,39,-1
 232 -18 l 1,35,-1
EndSplineSet
Validated: 1
EndChar

StartChar: percent
Encoding: 37 37 8
Width: 665
Flags: W
LayerCount: 2
Fore
SplineSet
265 670 m 1,0,-1
 228 632 l 1,1,-1
 148 632 l 1,2,-1
 111 670 l 1,3,-1
 148 707 l 1,4,-1
 228 707 l 1,5,-1
 265 670 l 1,0,-1
265 427 m 1,6,-1
 228 390 l 1,7,-1
 148 390 l 1,8,-1
 111 427 l 1,9,-1
 148 465 l 1,10,-1
 228 465 l 1,11,-1
 265 427 l 1,6,-1
60 479 m 1,12,-1
 97 443 l 1,13,-1
 135 479 l 1,14,-1
 135 618 l 1,15,-1
 97 656 l 1,16,-1
 60 618 l 1,17,-1
 60 479 l 1,12,-1
241 479 m 1,18,-1
 241 618 l 1,19,-1
 279 656 l 1,20,-1
 316 618 l 1,21,-1
 316 479 l 1,22,-1
 279 443 l 1,23,-1
 241 479 l 1,18,-1
554 280 m 1,24,-1
 517 242 l 1,25,-1
 438 242 l 1,26,-1
 400 280 l 1,27,-1
 438 317 l 1,28,-1
 517 317 l 1,29,-1
 554 280 l 1,24,-1
554 37 m 1,30,-1
 517 0 l 1,31,-1
 438 0 l 1,32,-1
 400 37 l 1,33,-1
 438 75 l 1,34,-1
 517 75 l 1,35,-1
 554 37 l 1,30,-1
349 89 m 1,36,-1
 386 53 l 1,37,-1
 424 89 l 1,38,-1
 424 228 l 1,39,-1
 386 266 l 1,40,-1
 349 228 l 1,41,-1
 349 89 l 1,36,-1
531 89 m 1,42,-1
 531 228 l 1,43,-1
 568 266 l 1,44,-1
 605 228 l 1,45,-1
 605 89 l 1,46,-1
 568 53 l 1,47,-1
 531 89 l 1,42,-1
353 320 m 1,48,-1
 172 4 l 1,49,-1
 144 106 l 1,50,-1
 280 340 l 1,51,-1
 343 358 l 1,52,-1
 353 320 l 1,48,-1
340 446 m 1,53,-1
 475 680 l 1,54,-1
 578 707 l 1,55,-1
 395 393 l 1,56,-1
 357 382 l 1,57,-1
 340 446 l 1,53,-1
EndSplineSet
Validated: 9
EndChar

StartChar: ampersand
Encoding: 38 38 9
Width: 539
Flags: W
LayerCount: 2
Fore
SplineSet
428 663 m 1,0,-1
 391 625 l 1,1,-1
 148 625 l 1,2,-1
 111 663 l 1,3,-1
 148 700 l 1,4,-1
 391 700 l 1,5,-1
 428 663 l 1,0,-1
479 392 m 1,6,-1
 452 364 l 1,7,-1
 405 411 l 1,8,-1
 405 480 l 1,9,-1
 442 518 l 1,10,-1
 479 480 l 1,11,-1
 479 392 l 1,6,-1
479 89 m 1,12,-1
 442 51 l 1,13,-1
 405 89 l 1,14,-1
 405 289 l 1,15,-1
 452 336 l 1,16,-1
 479 307 l 1,17,-1
 479 89 l 1,12,-1
438 350 m 1,18,-1
 400 313 l 1,19,-1
 139 313 l 1,20,-1
 102 350 l 1,21,-1
 139 387 l 1,22,-1
 400 387 l 1,23,-1
 438 350 l 1,18,-1
135 411 m 1,24,-1
 88 364 l 1,25,-1
 60 392 l 1,26,-1
 60 611 l 1,27,-1
 97 649 l 1,28,-1
 135 611 l 1,29,-1
 135 411 l 1,24,-1
428 37 m 1,30,-1
 391 0 l 1,31,-1
 148 0 l 1,32,-1
 111 37 l 1,33,-1
 148 75 l 1,34,-1
 391 75 l 1,35,-1
 428 37 l 1,30,-1
135 89 m 1,36,-1
 97 51 l 1,37,-1
 60 89 l 1,38,-1
 60 307 l 1,39,-1
 88 336 l 1,40,-1
 135 289 l 1,41,-1
 135 89 l 1,36,-1
503 313 m 1,42,-1
 465 350 l 1,43,-1
 503 387 l 1,44,-1
 540 350 l 1,45,-1
 503 313 l 1,42,-1
EndSplineSet
Validated: 1
EndChar

StartChar: quotesingle
Encoding: 39 39 10
Width: 194
Flags: W
LayerCount: 2
Fore
SplineSet
135 569 m 1,0,-1
 97 532 l 1,1,-1
 60 569 l 1,2,-1
 60 700 l 1,3,-1
 135 700 l 1,4,-1
 135 569 l 1,0,-1
EndSplineSet
Validated: 1
EndChar

StartChar: parenleft
Encoding: 40 40 11
Width: 353
Flags: W
LayerCount: 2
Fore
SplineSet
293 700 m 1,0,-1
 218 625 l 1,1,-1
 148 625 l 1,2,-1
 111 663 l 1,3,-1
 148 700 l 1,4,-1
 293 700 l 1,0,-1
135 411 m 1,5,-1
 88 364 l 1,6,-1
 60 392 l 1,7,-1
 60 611 l 1,8,-1
 97 649 l 1,9,-1
 135 611 l 1,10,-1
 135 411 l 1,5,-1
135 89 m 1,11,-1
 97 51 l 1,12,-1
 60 89 l 1,13,-1
 60 307 l 1,14,-1
 88 336 l 1,15,-1
 135 289 l 1,16,-1
 135 89 l 1,11,-1
293 0 m 1,17,-1
 148 0 l 1,18,-1
 111 37 l 1,19,-1
 148 75 l 1,20,-1
 218 75 l 1,21,-1
 293 0 l 1,17,-1
EndSplineSet
Validated: 1
EndChar

StartChar: parenright
Encoding: 41 41 12
Width: 353
Flags: W
LayerCount: 2
Fore
SplineSet
293 89 m 1,0,-1
 255 51 l 1,1,-1
 218 89 l 1,2,-1
 218 289 l 1,3,-1
 265 336 l 1,4,-1
 293 307 l 1,5,-1
 293 89 l 1,0,-1
293 392 m 1,6,-1
 265 364 l 1,7,-1
 218 411 l 1,8,-1
 218 611 l 1,9,-1
 255 649 l 1,10,-1
 293 611 l 1,11,-1
 293 392 l 1,6,-1
241 663 m 1,12,-1
 204 625 l 1,13,-1
 135 625 l 1,14,-1
 60 700 l 1,15,-1
 204 700 l 1,16,-1
 241 663 l 1,12,-1
241 37 m 1,17,-1
 204 0 l 1,18,-1
 60 0 l 1,19,-1
 135 75 l 1,20,-1
 204 75 l 1,21,-1
 241 37 l 1,17,-1
EndSplineSet
Validated: 1
EndChar

StartChar: asterisk
Encoding: 42 42 13
Width: 435
Flags: W
LayerCount: 2
Fore
SplineSet
74 558 m 1,0,-1
 60 609 l 1,1,-1
 111 623 l 1,2,-1
 160 595 l 1,3,-1
 201 529 l 1,4,-1
 126 529 l 1,5,-1
 74 558 l 1,0,-1
324 413 m 1,6,-1
 375 426 l 1,7,-1
 361 479 l 1,8,-1
 309 511 l 1,9,-1
 234 511 l 1,10,-1
 274 444 l 1,11,-1
 324 413 l 1,6,-1
254 373 m 1,12,-1
 217 336 l 1,13,-1
 180 373 l 1,14,-1
 180 430 l 1,15,-1
 217 499 l 1,16,-1
 254 433 l 1,17,-1
 254 373 l 1,12,-1
254 604 m 1,18,-1
 217 537 l 1,19,-1
 180 604 l 1,20,-1
 180 663 l 1,21,-1
 217 700 l 1,22,-1
 254 663 l 1,23,-1
 254 604 l 1,18,-1
111 413 m 1,24,-1
 60 426 l 1,25,-1
 74 478 l 1,26,-1
 126 507 l 1,27,-1
 201 507 l 1,28,-1
 160 439 l 1,29,-1
 111 413 l 1,24,-1
309 531 m 1,30,-1
 234 531 l 1,31,-1
 274 597 l 1,32,-1
 324 623 l 1,33,-1
 375 609 l 1,34,-1
 361 558 l 1,35,-1
 309 531 l 1,30,-1
EndSplineSet
Validated: 9
EndChar

StartChar: plus
Encoding: 43 43 14
Width: 455
Flags: W
LayerCount: 2
Fore
SplineSet
265 401 m 1,0,-1
 228 364 l 1,1,-1
 190 401 l 1,2,-1
 190 480 l 1,3,-1
 228 518 l 1,4,-1
 265 480 l 1,5,-1
 265 401 l 1,0,-1
395 350 m 1,6,-1
 358 313 l 1,7,-1
 279 313 l 1,8,-1
 241 350 l 1,9,-1
 279 387 l 1,10,-1
 358 387 l 1,11,-1
 395 350 l 1,6,-1
214 350 m 1,12,-1
 176 313 l 1,13,-1
 97 313 l 1,14,-1
 60 350 l 1,15,-1
 97 387 l 1,16,-1
 176 387 l 1,17,-1
 214 350 l 1,12,-1
265 219 m 1,18,-1
 228 182 l 1,19,-1
 190 219 l 1,20,-1
 190 299 l 1,21,-1
 228 336 l 1,22,-1
 265 299 l 1,23,-1
 265 219 l 1,18,-1
EndSplineSet
Validated: 1
EndChar

StartChar: comma
Encoding: 44 44 15
Width: 194
Flags: W
LayerCount: 2
Fore
SplineSet
135 -79 m 1,0,-1
 97 -116 l 1,1,-1
 60 -79 l 1,2,-1
 60 75 l 1,3,-1
 135 75 l 1,4,-1
 135 -79 l 1,0,-1
EndSplineSet
Validated: 1
EndChar

StartChar: hyphen
Encoding: 45 45 16
Width: 455
Flags: W
LayerCount: 2
Fore
SplineSet
358 387 m 1,0,-1
 395 350 l 1,1,-1
 358 313 l 1,2,-1
 97 313 l 1,3,-1
 60 350 l 1,4,-1
 97 387 l 1,5,-1
 358 387 l 1,0,-1
EndSplineSet
Validated: 1
EndChar

StartChar: period
Encoding: 46 46 17
Width: 194
Flags: W
LayerCount: 2
Fore
SplineSet
60 0 m 1,0,-1
 60 75 l 1,1,-1
 135 75 l 1,2,-1
 135 0 l 1,3,-1
 60 0 l 1,0,-1
EndSplineSet
Validated: 1
EndChar

StartChar: slash
Encoding: 47 47 18
Width: 506
Flags: W
LayerCount: 2
Fore
SplineSet
246 320 m 1,0,-1
 64 4 l 1,1,-1
 36 106 l 1,2,-1
 172 340 l 1,3,-1
 235 358 l 1,4,-1
 246 320 l 1,0,-1
232 446 m 1,5,-1
 367 680 l 1,6,-1
 470 707 l 1,7,-1
 287 393 l 1,8,-1
 249 382 l 1,9,-1
 232 446 l 1,5,-1
EndSplineSet
Validated: 1
EndChar

StartChar: zero
Encoding: 48 48 19
Width: 539
Flags: WO
LayerCount: 2
Fore
SplineSet
479 392 m 5,0,-1
 452 364 l 5,1,-1
 405 411 l 5,2,-1
 405 611 l 5,3,-1
 479 686 l 5,4,-1
 479 392 l 5,0,-1
465 700 m 5,5,-1
 391 625 l 5,6,-1
 148 625 l 5,7,-1
 74 700 l 5,8,-1
 465 700 l 5,5,-1
135 411 m 5,9,-1
 88 364 l 5,10,-1
 60 392 l 5,11,-1
 60 686 l 5,12,-1
 135 611 l 5,13,-1
 135 411 l 5,9,-1
479 14 m 5,14,-1
 405 89 l 5,15,-1
 405 289 l 5,16,-1
 452 336 l 5,17,-1
 479 307 l 5,18,-1
 479 14 l 5,14,-1
465 0 m 5,19,-1
 74 0 l 5,20,-1
 148 75 l 5,21,-1
 391 75 l 5,22,-1
 465 0 l 5,19,-1
135 89 m 5,23,-1
 60 14 l 5,24,-1
 60 307 l 5,25,-1
 88 336 l 5,26,-1
 135 289 l 5,27,-1
 135 89 l 5,23,-1
EndSplineSet
Validated: 1
EndChar

StartChar: one
Encoding: 49 49 20
Width: 539
Flags: WO
LayerCount: 2
Fore
SplineSet
479 307 m 1,0,-1
 479 14 l 1,1,-1
 404 89 l 1,2,-1
 404 289 l 1,3,-1
 451 336 l 1,4,-1
 479 307 l 1,0,-1
404 411 m 1,5,-1
 404 611 l 1,6,-1
 479 686 l 1,7,-1
 479 392 l 1,8,-1
 451 364 l 1,9,-1
 404 411 l 1,5,-1
EndSplineSet
Validated: 1
EndChar

StartChar: two
Encoding: 50 50 21
Width: 539
Flags: W
LayerCount: 2
Fore
SplineSet
465 700 m 1,0,-1
 391 625 l 1,1,-1
 148 625 l 1,2,-1
 74 700 l 1,3,-1
 465 700 l 1,0,-1
465 0 m 1,4,-1
 74 0 l 1,5,-1
 148 75 l 1,6,-1
 391 75 l 1,7,-1
 465 0 l 1,4,-1
135 289 m 1,8,-1
 135 89 l 1,9,-1
 60 14 l 1,10,-1
 60 307 l 1,11,-1
 88 336 l 1,12,-1
 135 289 l 1,8,-1
405 411 m 1,13,-1
 405 611 l 1,14,-1
 479 686 l 1,15,-1
 479 392 l 1,16,-1
 452 364 l 1,17,-1
 405 411 l 1,13,-1
400 387 m 1,18,-1
 438 350 l 1,19,-1
 400 313 l 1,20,-1
 139 313 l 1,21,-1
 102 350 l 1,22,-1
 139 387 l 1,23,-1
 400 387 l 1,18,-1
EndSplineSet
Validated: 1
EndChar

StartChar: three
Encoding: 51 51 22
Width: 539
Flags: W
LayerCount: 2
Fore
SplineSet
465 700 m 1,0,-1
 391 625 l 1,1,-1
 148 625 l 1,2,-1
 74 700 l 1,3,-1
 465 700 l 1,0,-1
465 0 m 1,4,-1
 74 0 l 1,5,-1
 148 75 l 1,6,-1
 391 75 l 1,7,-1
 465 0 l 1,4,-1
479 307 m 1,8,-1
 479 14 l 1,9,-1
 405 89 l 1,10,-1
 405 289 l 1,11,-1
 452 336 l 1,12,-1
 479 307 l 1,8,-1
405 411 m 1,13,-1
 405 611 l 1,14,-1
 479 686 l 1,15,-1
 479 392 l 1,16,-1
 452 364 l 1,17,-1
 405 411 l 1,13,-1
400 387 m 1,18,-1
 438 350 l 1,19,-1
 400 313 l 1,20,-1
 139 313 l 1,21,-1
 102 350 l 1,22,-1
 139 387 l 1,23,-1
 400 387 l 1,18,-1
EndSplineSet
Validated: 1
EndChar

StartChar: four
Encoding: 52 52 23
Width: 539
Flags: W
LayerCount: 2
Fore
SplineSet
60 392 m 1,0,-1
 60 686 l 1,1,-1
 135 611 l 1,2,-1
 135 411 l 1,3,-1
 88 364 l 1,4,-1
 60 392 l 1,0,-1
479 307 m 1,5,-1
 479 14 l 1,6,-1
 405 89 l 1,7,-1
 405 289 l 1,8,-1
 452 336 l 1,9,-1
 479 307 l 1,5,-1
405 411 m 1,10,-1
 405 611 l 1,11,-1
 479 686 l 1,12,-1
 479 392 l 1,13,-1
 452 364 l 1,14,-1
 405 411 l 1,10,-1
400 387 m 1,15,-1
 438 350 l 1,16,-1
 400 313 l 1,17,-1
 139 313 l 1,18,-1
 102 350 l 1,19,-1
 139 387 l 1,20,-1
 400 387 l 1,15,-1
EndSplineSet
Validated: 1
EndChar

StartChar: five
Encoding: 53 53 24
Width: 539
Flags: W
LayerCount: 2
Fore
SplineSet
465 700 m 1,0,-1
 391 625 l 1,1,-1
 148 625 l 1,2,-1
 74 700 l 1,3,-1
 465 700 l 1,0,-1
465 0 m 1,4,-1
 74 0 l 1,5,-1
 148 75 l 1,6,-1
 391 75 l 1,7,-1
 465 0 l 1,4,-1
60 392 m 1,8,-1
 60 686 l 1,9,-1
 135 611 l 1,10,-1
 135 411 l 1,11,-1
 88 364 l 1,12,-1
 60 392 l 1,8,-1
479 307 m 1,13,-1
 479 14 l 1,14,-1
 405 89 l 1,15,-1
 405 289 l 1,16,-1
 452 336 l 1,17,-1
 479 307 l 1,13,-1
400 387 m 1,18,-1
 438 350 l 1,19,-1
 400 313 l 1,20,-1
 139 313 l 1,21,-1
 102 350 l 1,22,-1
 139 387 l 1,23,-1
 400 387 l 1,18,-1
EndSplineSet
Validated: 1
EndChar

StartChar: six
Encoding: 54 54 25
Width: 539
Flags: W
LayerCount: 2
Fore
SplineSet
465 700 m 1,0,-1
 391 625 l 1,1,-1
 148 625 l 1,2,-1
 74 700 l 1,3,-1
 465 700 l 1,0,-1
465 0 m 1,4,-1
 74 0 l 1,5,-1
 148 75 l 1,6,-1
 391 75 l 1,7,-1
 465 0 l 1,4,-1
135 289 m 1,8,-1
 135 89 l 1,9,-1
 60 14 l 1,10,-1
 60 307 l 1,11,-1
 88 336 l 1,12,-1
 135 289 l 1,8,-1
60 392 m 1,13,-1
 60 686 l 1,14,-1
 135 611 l 1,15,-1
 135 411 l 1,16,-1
 88 364 l 1,17,-1
 60 392 l 1,13,-1
479 307 m 1,18,-1
 479 14 l 1,19,-1
 405 89 l 1,20,-1
 405 289 l 1,21,-1
 452 336 l 1,22,-1
 479 307 l 1,18,-1
400 387 m 1,23,-1
 438 350 l 1,24,-1
 400 313 l 1,25,-1
 139 313 l 1,26,-1
 102 350 l 1,27,-1
 139 387 l 1,28,-1
 400 387 l 1,23,-1
EndSplineSet
Validated: 1
EndChar

StartChar: seven
Encoding: 55 55 26
Width: 539
Flags: W
LayerCount: 2
Fore
SplineSet
465 700 m 1,0,-1
 391 625 l 1,1,-1
 148 625 l 1,2,-1
 74 700 l 1,3,-1
 465 700 l 1,0,-1
479 307 m 1,4,-1
 479 14 l 1,5,-1
 405 89 l 1,6,-1
 405 289 l 1,7,-1
 452 336 l 1,8,-1
 479 307 l 1,4,-1
405 411 m 1,9,-1
 405 611 l 1,10,-1
 479 686 l 1,11,-1
 479 392 l 1,12,-1
 452 364 l 1,13,-1
 405 411 l 1,9,-1
EndSplineSet
Validated: 1
EndChar

StartChar: eight
Encoding: 56 56 27
Width: 539
Flags: W
LayerCount: 2
Fore
SplineSet
465 700 m 1,0,-1
 391 625 l 1,1,-1
 148 625 l 1,2,-1
 74 700 l 1,3,-1
 465 700 l 1,0,-1
465 0 m 1,4,-1
 74 0 l 1,5,-1
 148 75 l 1,6,-1
 391 75 l 1,7,-1
 465 0 l 1,4,-1
135 289 m 1,8,-1
 135 89 l 1,9,-1
 60 14 l 1,10,-1
 60 307 l 1,11,-1
 88 336 l 1,12,-1
 135 289 l 1,8,-1
60 392 m 1,13,-1
 60 686 l 1,14,-1
 135 611 l 1,15,-1
 135 411 l 1,16,-1
 88 364 l 1,17,-1
 60 392 l 1,13,-1
479 307 m 1,18,-1
 479 14 l 1,19,-1
 405 89 l 1,20,-1
 405 289 l 1,21,-1
 452 336 l 1,22,-1
 479 307 l 1,18,-1
405 411 m 1,23,-1
 405 611 l 1,24,-1
 479 686 l 1,25,-1
 479 392 l 1,26,-1
 452 364 l 1,27,-1
 405 411 l 1,23,-1
400 387 m 1,28,-1
 438 350 l 1,29,-1
 400 313 l 1,30,-1
 139 313 l 1,31,-1
 102 350 l 1,32,-1
 139 387 l 1,33,-1
 400 387 l 1,28,-1
EndSplineSet
Validated: 1
EndChar

StartChar: nine
Encoding: 57 57 28
Width: 539
Flags: W
LayerCount: 2
Fore
SplineSet
465 700 m 1,0,-1
 391 625 l 1,1,-1
 148 625 l 1,2,-1
 74 700 l 1,3,-1
 465 700 l 1,0,-1
465 0 m 1,4,-1
 74 0 l 1,5,-1
 148 75 l 1,6,-1
 391 75 l 1,7,-1
 465 0 l 1,4,-1
60 392 m 1,8,-1
 60 686 l 1,9,-1
 135 611 l 1,10,-1
 135 411 l 1,11,-1
 88 364 l 1,12,-1
 60 392 l 1,8,-1
479 307 m 1,13,-1
 479 14 l 1,14,-1
 405 89 l 1,15,-1
 405 289 l 1,16,-1
 452 336 l 1,17,-1
 479 307 l 1,13,-1
405 411 m 1,18,-1
 405 611 l 1,19,-1
 479 686 l 1,20,-1
 479 392 l 1,21,-1
 452 364 l 1,22,-1
 405 411 l 1,18,-1
400 387 m 1,23,-1
 438 350 l 1,24,-1
 400 313 l 1,25,-1
 139 313 l 1,26,-1
 102 350 l 1,27,-1
 139 387 l 1,28,-1
 400 387 l 1,23,-1
EndSplineSet
Validated: 1
EndChar

StartChar: colon
Encoding: 58 58 29
Width: 241
Flags: W
LayerCount: 2
Fore
SplineSet
83 0 m 1,0,-1
 83 75 l 1,1,-1
 158 75 l 1,2,-1
 158 0 l 1,3,-1
 83 0 l 1,0,-1
83 508 m 1,4,-1
 83 583 l 1,5,-1
 158 583 l 1,6,-1
 158 508 l 1,7,-1
 83 508 l 1,4,-1
EndSplineSet
Validated: 1
EndChar

StartChar: semicolon
Encoding: 59 59 30
Width: 241
Flags: W
LayerCount: 2
Fore
SplineSet
158 -79 m 1,0,-1
 121 -116 l 1,1,-1
 83 -79 l 1,2,-1
 83 75 l 1,3,-1
 158 75 l 1,4,-1
 158 -79 l 1,0,-1
83 508 m 1,5,-1
 83 583 l 1,6,-1
 158 583 l 1,7,-1
 158 508 l 1,8,-1
 83 508 l 1,5,-1
EndSplineSet
Validated: 1
EndChar

StartChar: less
Encoding: 60 60 31
Width: 396
Flags: W
LayerCount: 2
Fore
SplineSet
337 531 m 1,0,-1
 165 360 l 1,1,-1
 60 360 l 1,2,-1
 284 584 l 1,3,-1
 337 584 l 1,4,-1
 337 531 l 1,0,-1
337 116 m 1,5,-1
 284 116 l 1,6,-1
 60 339 l 1,7,-1
 165 339 l 1,8,-1
 337 168 l 1,9,-1
 337 116 l 1,5,-1
EndSplineSet
Validated: 1
EndChar

StartChar: equal
Encoding: 61 61 32
Width: 455
Flags: W
LayerCount: 2
Fore
SplineSet
358 462 m 1,0,-1
 395 425 l 1,1,-1
 358 387 l 1,2,-1
 97 387 l 1,3,-1
 60 425 l 1,4,-1
 97 462 l 1,5,-1
 358 462 l 1,0,-1
358 313 m 1,6,-1
 395 275 l 1,7,-1
 358 238 l 1,8,-1
 97 238 l 1,9,-1
 60 275 l 1,10,-1
 97 313 l 1,11,-1
 358 313 l 1,6,-1
EndSplineSet
Validated: 1
EndChar

StartChar: greater
Encoding: 62 62 33
Width: 396
Flags: W
LayerCount: 2
Fore
SplineSet
337 354 m 1,0,-1
 231 354 l 1,1,-1
 60 526 l 1,2,-1
 60 579 l 1,3,-1
 113 579 l 1,4,-1
 337 354 l 1,0,-1
337 334 m 1,5,-1
 113 110 l 1,6,-1
 60 110 l 1,7,-1
 60 163 l 1,8,-1
 231 334 l 1,9,-1
 337 334 l 1,5,-1
EndSplineSet
Validated: 1
EndChar

StartChar: question
Encoding: 63 63 34
Width: 539
Flags: W
LayerCount: 2
Fore
SplineSet
479 392 m 1,0,-1
 452 364 l 1,1,-1
 405 411 l 1,2,-1
 405 611 l 1,3,-1
 442 649 l 1,4,-1
 479 611 l 1,5,-1
 479 392 l 1,0,-1
428 663 m 1,6,-1
 391 625 l 1,7,-1
 135 625 l 1,8,-1
 60 700 l 1,9,-1
 391 700 l 1,10,-1
 428 663 l 1,6,-1
135 89 m 1,11,-1
 60 14 l 1,12,-1
 60 307 l 1,13,-1
 88 336 l 1,14,-1
 135 289 l 1,15,-1
 135 89 l 1,11,-1
400 387 m 1,16,-1
 438 350 l 1,17,-1
 400 313 l 1,18,-1
 139 313 l 1,19,-1
 102 350 l 1,20,-1
 139 387 l 1,21,-1
 400 387 l 1,16,-1
135 -14 m 1,22,-1
 60 -14 l 1,23,-1
 60 -89 l 1,24,-1
 135 -89 l 1,25,-1
 135 -14 l 1,22,-1
EndSplineSet
Validated: 9
EndChar

StartChar: at
Encoding: 64 64 35
Width: 632
Flags: W
LayerCount: 2
Fore
SplineSet
573 513 m 1,0,-1
 545 485 l 1,1,-1
 498 532 l 1,2,-1
 498 611 l 1,3,-1
 573 686 l 1,4,-1
 573 513 l 1,0,-1
558 700 m 1,5,-1
 484 625 l 1,6,-1
 148 625 l 1,7,-1
 111 663 l 1,8,-1
 148 700 l 1,9,-1
 558 700 l 1,5,-1
531 471 m 1,10,-1
 493 434 l 1,11,-1
 232 434 l 1,12,-1
 195 471 l 1,13,-1
 232 508 l 1,14,-1
 493 508 l 1,15,-1
 531 471 l 1,10,-1
573 163 m 1,16,-1
 498 238 l 1,17,-1
 498 411 l 1,18,-1
 545 457 l 1,19,-1
 573 429 l 1,20,-1
 573 163 l 1,16,-1
135 411 m 1,21,-1
 88 364 l 1,22,-1
 60 392 l 1,23,-1
 60 611 l 1,24,-1
 97 649 l 1,25,-1
 135 611 l 1,26,-1
 135 411 l 1,21,-1
558 149 m 1,27,-1
 241 149 l 1,28,-1
 204 187 l 1,29,-1
 241 224 l 1,30,-1
 484 224 l 1,31,-1
 558 149 l 1,27,-1
228 238 m 1,32,-1
 190 201 l 1,33,-1
 153 238 l 1,34,-1
 153 429 l 1,35,-1
 181 457 l 1,36,-1
 228 411 l 1,37,-1
 228 238 l 1,32,-1
60 307 m 1,38,-1
 88 336 l 1,39,-1
 135 289 l 1,40,-1
 135 89 l 1,41,-1
 97 51 l 1,42,-1
 60 89 l 1,43,-1
 60 307 l 1,38,-1
148 0 m 1,44,-1
 111 37 l 1,45,-1
 148 75 l 1,46,-1
 536 75 l 1,47,-1
 573 37 l 1,48,-1
 536 0 l 1,49,-1
 148 0 l 1,44,-1
EndSplineSet
Validated: 1
EndChar

StartChar: A
Encoding: 65 65 36
Width: 539
Flags: W
LayerCount: 2
Fore
SplineSet
465 700 m 1,0,-1
 391 625 l 1,1,-1
 148 625 l 1,2,-1
 74 700 l 1,3,-1
 465 700 l 1,0,-1
135 289 m 1,4,-1
 135 75 l 1,5,-1
 60 0 l 1,6,-1
 60 307 l 1,7,-1
 88 336 l 1,8,-1
 135 289 l 1,4,-1
60 392 m 1,9,-1
 60 686 l 1,10,-1
 135 611 l 1,11,-1
 135 411 l 1,12,-1
 88 364 l 1,13,-1
 60 392 l 1,9,-1
479 307 m 1,14,-1
 479 0 l 1,15,-1
 405 75 l 1,16,-1
 405 289 l 1,17,-1
 452 336 l 1,18,-1
 479 307 l 1,14,-1
405 411 m 1,19,-1
 405 611 l 1,20,-1
 479 686 l 1,21,-1
 479 392 l 1,22,-1
 452 364 l 1,23,-1
 405 411 l 1,19,-1
400 387 m 1,24,-1
 438 350 l 1,25,-1
 400 313 l 1,26,-1
 139 313 l 1,27,-1
 102 350 l 1,28,-1
 139 387 l 1,29,-1
 400 387 l 1,24,-1
EndSplineSet
Validated: 1
EndChar

StartChar: B
Encoding: 66 66 37
Width: 539
Flags: W
LayerCount: 2
Fore
SplineSet
479 89 m 1,0,-1
 442 51 l 1,1,-1
 405 89 l 1,2,-1
 405 289 l 1,3,-1
 452 336 l 1,4,-1
 479 307 l 1,5,-1
 479 89 l 1,0,-1
479 392 m 1,6,-1
 452 364 l 1,7,-1
 405 411 l 1,8,-1
 405 611 l 1,9,-1
 442 649 l 1,10,-1
 479 611 l 1,11,-1
 479 392 l 1,6,-1
428 663 m 1,12,-1
 391 625 l 1,13,-1
 148 625 l 1,14,-1
 74 700 l 1,15,-1
 391 700 l 1,16,-1
 428 663 l 1,12,-1
428 37 m 1,17,-1
 391 0 l 1,18,-1
 74 0 l 1,19,-1
 148 75 l 1,20,-1
 391 75 l 1,21,-1
 428 37 l 1,17,-1
135 411 m 1,22,-1
 88 364 l 1,23,-1
 60 392 l 1,24,-1
 60 686 l 1,25,-1
 135 611 l 1,26,-1
 135 411 l 1,22,-1
135 89 m 1,27,-1
 60 14 l 1,28,-1
 60 307 l 1,29,-1
 88 336 l 1,30,-1
 135 289 l 1,31,-1
 135 89 l 1,27,-1
400 387 m 1,32,-1
 438 350 l 1,33,-1
 400 313 l 1,34,-1
 139 313 l 1,35,-1
 102 350 l 1,36,-1
 139 387 l 1,37,-1
 400 387 l 1,32,-1
EndSplineSet
Validated: 1
EndChar

StartChar: C
Encoding: 67 67 38
Width: 539
Flags: W
LayerCount: 2
Fore
SplineSet
479 700 m 1,0,-1
 405 625 l 1,1,-1
 148 625 l 1,2,-1
 111 663 l 1,3,-1
 148 700 l 1,4,-1
 479 700 l 1,0,-1
135 411 m 1,5,-1
 88 364 l 1,6,-1
 60 392 l 1,7,-1
 60 611 l 1,8,-1
 97 649 l 1,9,-1
 135 611 l 1,10,-1
 135 411 l 1,5,-1
479 0 m 1,11,-1
 148 0 l 1,12,-1
 111 37 l 1,13,-1
 148 75 l 1,14,-1
 405 75 l 1,15,-1
 479 0 l 1,11,-1
135 89 m 1,16,-1
 97 51 l 1,17,-1
 60 89 l 1,18,-1
 60 307 l 1,19,-1
 88 336 l 1,20,-1
 135 289 l 1,21,-1
 135 89 l 1,16,-1
EndSplineSet
Validated: 1
EndChar

StartChar: D
Encoding: 68 68 39
Width: 539
Flags: W
LayerCount: 2
Fore
SplineSet
479 89 m 1,0,-1
 442 51 l 1,1,-1
 405 89 l 1,2,-1
 405 289 l 1,3,-1
 452 336 l 1,4,-1
 479 307 l 1,5,-1
 479 89 l 1,0,-1
479 392 m 1,6,-1
 452 364 l 1,7,-1
 405 411 l 1,8,-1
 405 611 l 1,9,-1
 442 649 l 1,10,-1
 479 611 l 1,11,-1
 479 392 l 1,6,-1
428 663 m 1,12,-1
 391 625 l 1,13,-1
 148 625 l 1,14,-1
 74 700 l 1,15,-1
 391 700 l 1,16,-1
 428 663 l 1,12,-1
428 37 m 1,17,-1
 391 0 l 1,18,-1
 74 0 l 1,19,-1
 148 75 l 1,20,-1
 391 75 l 1,21,-1
 428 37 l 1,17,-1
135 411 m 1,22,-1
 88 364 l 1,23,-1
 60 392 l 1,24,-1
 60 686 l 1,25,-1
 135 611 l 1,26,-1
 135 411 l 1,22,-1
135 89 m 1,27,-1
 60 14 l 1,28,-1
 60 307 l 1,29,-1
 88 336 l 1,30,-1
 135 289 l 1,31,-1
 135 89 l 1,27,-1
EndSplineSet
Validated: 1
EndChar

StartChar: E
Encoding: 69 69 40
Width: 539
Flags: W
LayerCount: 2
Fore
SplineSet
479 700 m 1,0,-1
 405 625 l 1,1,-1
 148 625 l 1,2,-1
 74 700 l 1,3,-1
 479 700 l 1,0,-1
479 0 m 1,4,-1
 74 0 l 1,5,-1
 148 75 l 1,6,-1
 405 75 l 1,7,-1
 479 0 l 1,4,-1
135 289 m 1,8,-1
 135 89 l 1,9,-1
 60 14 l 1,10,-1
 60 307 l 1,11,-1
 88 336 l 1,12,-1
 135 289 l 1,8,-1
60 392 m 1,13,-1
 60 686 l 1,14,-1
 135 611 l 1,15,-1
 135 411 l 1,16,-1
 88 364 l 1,17,-1
 60 392 l 1,13,-1
400 387 m 1,18,-1
 438 350 l 1,19,-1
 400 313 l 1,20,-1
 139 313 l 1,21,-1
 102 350 l 1,22,-1
 139 387 l 1,23,-1
 400 387 l 1,18,-1
EndSplineSet
Validated: 1
EndChar

StartChar: F
Encoding: 70 70 41
Width: 539
Flags: W
LayerCount: 2
Fore
SplineSet
479 700 m 1,0,-1
 405 625 l 1,1,-1
 148 625 l 1,2,-1
 74 700 l 1,3,-1
 479 700 l 1,0,-1
135 289 m 1,4,-1
 135 89 l 1,5,-1
 60 14 l 1,6,-1
 60 307 l 1,7,-1
 88 336 l 1,8,-1
 135 289 l 1,4,-1
60 392 m 1,9,-1
 60 686 l 1,10,-1
 135 611 l 1,11,-1
 135 411 l 1,12,-1
 88 364 l 1,13,-1
 60 392 l 1,9,-1
400 387 m 1,14,-1
 438 350 l 1,15,-1
 400 313 l 1,16,-1
 139 313 l 1,17,-1
 102 350 l 1,18,-1
 139 387 l 1,19,-1
 400 387 l 1,14,-1
EndSplineSet
Validated: 1
EndChar

StartChar: G
Encoding: 71 71 42
Width: 539
Flags: W
LayerCount: 2
Fore
SplineSet
465 700 m 1,0,-1
 391 625 l 1,1,-1
 148 625 l 1,2,-1
 111 663 l 1,3,-1
 148 700 l 1,4,-1
 465 700 l 1,0,-1
438 350 m 1,5,-1
 400 313 l 1,6,-1
 316 313 l 1,7,-1
 279 350 l 1,8,-1
 316 387 l 1,9,-1
 400 387 l 1,10,-1
 438 350 l 1,5,-1
135 411 m 1,11,-1
 88 364 l 1,12,-1
 60 392 l 1,13,-1
 60 611 l 1,14,-1
 97 649 l 1,15,-1
 135 611 l 1,16,-1
 135 411 l 1,11,-1
135 89 m 1,17,-1
 97 51 l 1,18,-1
 60 89 l 1,19,-1
 60 307 l 1,20,-1
 88 336 l 1,21,-1
 135 289 l 1,22,-1
 135 89 l 1,17,-1
391 0 m 1,23,-1
 428 37 l 1,24,-1
 391 75 l 1,25,-1
 148 75 l 1,26,-1
 111 37 l 1,27,-1
 148 0 l 1,28,-1
 391 0 l 1,23,-1
479 89 m 1,29,-1
 442 51 l 1,30,-1
 405 89 l 1,31,-1
 405 289 l 1,32,-1
 452 336 l 1,33,-1
 479 307 l 1,34,-1
 479 89 l 1,29,-1
EndSplineSet
Validated: 9
EndChar

StartChar: H
Encoding: 72 72 43
Width: 539
Flags: W
LayerCount: 2
Fore
SplineSet
135 289 m 1,0,-1
 135 75 l 1,1,-1
 60 0 l 1,2,-1
 60 307 l 1,3,-1
 88 336 l 1,4,-1
 135 289 l 1,0,-1
60 392 m 1,5,-1
 60 700 l 1,6,-1
 135 625 l 1,7,-1
 135 411 l 1,8,-1
 88 364 l 1,9,-1
 60 392 l 1,5,-1
479 307 m 1,10,-1
 479 0 l 1,11,-1
 405 75 l 1,12,-1
 405 289 l 1,13,-1
 452 336 l 1,14,-1
 479 307 l 1,10,-1
405 411 m 1,15,-1
 405 625 l 1,16,-1
 479 700 l 1,17,-1
 479 392 l 1,18,-1
 452 364 l 1,19,-1
 405 411 l 1,15,-1
400 387 m 1,20,-1
 438 350 l 1,21,-1
 400 313 l 1,22,-1
 139 313 l 1,23,-1
 102 350 l 1,24,-1
 139 387 l 1,25,-1
 400 387 l 1,20,-1
EndSplineSet
Validated: 1
EndChar

StartChar: I
Encoding: 73 73 44
Width: 287
Flags: W
LayerCount: 2
Fore
SplineSet
181 392 m 1,0,-1
 153 364 l 1,1,-1
 106 411 l 1,2,-1
 106 663 l 1,3,-1
 143 700 l 1,4,-1
 181 663 l 1,5,-1
 181 392 l 1,0,-1
181 37 m 1,6,-1
 143 0 l 1,7,-1
 106 37 l 1,8,-1
 106 289 l 1,9,-1
 153 336 l 1,10,-1
 181 307 l 1,11,-1
 181 37 l 1,6,-1
EndSplineSet
Validated: 1
EndChar

StartChar: J
Encoding: 74 74 45
Width: 539
Flags: W
LayerCount: 2
Fore
SplineSet
465 0 m 1,0,-1
 74 0 l 1,1,-1
 148 75 l 1,2,-1
 391 75 l 1,3,-1
 465 0 l 1,0,-1
135 196 m 1,4,-1
 135 89 l 1,5,-1
 60 14 l 1,6,-1
 60 215 l 1,7,-1
 88 242 l 1,8,-1
 135 196 l 1,4,-1
479 307 m 1,9,-1
 479 14 l 1,10,-1
 405 89 l 1,11,-1
 405 289 l 1,12,-1
 452 336 l 1,13,-1
 479 307 l 1,9,-1
405 411 m 1,14,-1
 405 625 l 1,15,-1
 479 700 l 1,16,-1
 479 392 l 1,17,-1
 452 364 l 1,18,-1
 405 411 l 1,14,-1
EndSplineSet
Validated: 1
EndChar

StartChar: K
Encoding: 75 75 46
Width: 539
Flags: W
LayerCount: 2
Fore
SplineSet
135 289 m 1,0,-1
 135 75 l 1,1,-1
 60 0 l 1,2,-1
 60 307 l 1,3,-1
 88 336 l 1,4,-1
 135 289 l 1,0,-1
60 392 m 1,5,-1
 60 700 l 1,6,-1
 135 625 l 1,7,-1
 135 411 l 1,8,-1
 88 364 l 1,9,-1
 60 392 l 1,5,-1
479 307 m 1,10,-1
 479 0 l 1,11,-1
 405 75 l 1,12,-1
 405 289 l 1,13,-1
 452 336 l 1,14,-1
 479 307 l 1,10,-1
391 697 m 1,15,-1
 444 697 l 1,16,-1
 444 644 l 1,17,-1
 206 409 l 1,18,-1
 153 409 l 1,19,-1
 153 462 l 1,20,-1
 391 697 l 1,15,-1
400 387 m 1,21,-1
 438 350 l 1,22,-1
 400 313 l 1,23,-1
 139 313 l 1,24,-1
 102 350 l 1,25,-1
 139 387 l 1,26,-1
 400 387 l 1,21,-1
EndSplineSet
Validated: 1
EndChar

StartChar: L
Encoding: 76 76 47
Width: 539
Flags: W
LayerCount: 2
Fore
SplineSet
479 0 m 1,0,-1
 74 0 l 1,1,-1
 148 75 l 1,2,-1
 405 75 l 1,3,-1
 479 0 l 1,0,-1
135 289 m 1,4,-1
 135 89 l 1,5,-1
 60 14 l 1,6,-1
 60 307 l 1,7,-1
 88 336 l 1,8,-1
 135 289 l 1,4,-1
60 392 m 1,9,-1
 60 700 l 1,10,-1
 135 625 l 1,11,-1
 135 411 l 1,12,-1
 88 364 l 1,13,-1
 60 392 l 1,9,-1
EndSplineSet
Validated: 1
EndChar

StartChar: M
Encoding: 77 77 48
Width: 539
Flags: W
LayerCount: 2
Fore
SplineSet
465 700 m 1,0,-1
 391 625 l 1,1,-1
 148 625 l 1,2,-1
 74 700 l 1,3,-1
 465 700 l 1,0,-1
135 289 m 1,4,-1
 135 75 l 1,5,-1
 60 0 l 1,6,-1
 60 307 l 1,7,-1
 88 336 l 1,8,-1
 135 289 l 1,4,-1
60 392 m 1,9,-1
 60 686 l 1,10,-1
 135 611 l 1,11,-1
 135 411 l 1,12,-1
 88 364 l 1,13,-1
 60 392 l 1,9,-1
479 307 m 1,14,-1
 479 0 l 1,15,-1
 405 75 l 1,16,-1
 405 289 l 1,17,-1
 452 336 l 1,18,-1
 479 307 l 1,14,-1
405 411 m 1,19,-1
 405 611 l 1,20,-1
 479 686 l 1,21,-1
 479 392 l 1,22,-1
 452 364 l 1,23,-1
 405 411 l 1,19,-1
232 569 m 1,24,-1
 269 606 l 1,25,-1
 307 569 l 1,26,-1
 307 402 l 1,27,-1
 269 364 l 1,28,-1
 232 402 l 1,29,-1
 232 569 l 1,24,-1
EndSplineSet
Validated: 1
EndChar

StartChar: N
Encoding: 78 78 49
Width: 539
Flags: W
LayerCount: 2
Fore
SplineSet
135 289 m 1,0,-1
 135 75 l 1,1,-1
 60 0 l 1,2,-1
 60 307 l 1,3,-1
 88 336 l 1,4,-1
 135 289 l 1,0,-1
60 392 m 1,5,-1
 60 700 l 1,6,-1
 135 625 l 1,7,-1
 135 411 l 1,8,-1
 88 364 l 1,9,-1
 60 392 l 1,5,-1
479 307 m 1,10,-1
 479 0 l 1,11,-1
 405 75 l 1,12,-1
 405 289 l 1,13,-1
 452 336 l 1,14,-1
 479 307 l 1,10,-1
405 411 m 1,15,-1
 405 625 l 1,16,-1
 479 700 l 1,17,-1
 479 392 l 1,18,-1
 452 364 l 1,19,-1
 405 411 l 1,15,-1
152 571 m 1,20,-1
 152 625 l 1,21,-1
 205 625 l 1,22,-1
 387 443 l 1,23,-1
 387 390 l 1,24,-1
 334 390 l 1,25,-1
 152 571 l 1,20,-1
EndSplineSet
Validated: 1
EndChar

StartChar: O
Encoding: 79 79 50
Width: 539
Flags: W
LayerCount: 2
Fore
SplineSet
479 392 m 1,0,-1
 452 364 l 1,1,-1
 405 411 l 1,2,-1
 405 611 l 1,3,-1
 442 649 l 1,4,-1
 479 611 l 1,5,-1
 479 392 l 1,0,-1
428 663 m 1,6,-1
 391 625 l 1,7,-1
 148 625 l 1,8,-1
 111 663 l 1,9,-1
 148 700 l 1,10,-1
 391 700 l 1,11,-1
 428 663 l 1,6,-1
479 89 m 1,12,-1
 442 51 l 1,13,-1
 405 89 l 1,14,-1
 405 289 l 1,15,-1
 452 336 l 1,16,-1
 479 307 l 1,17,-1
 479 89 l 1,12,-1
135 411 m 1,18,-1
 88 364 l 1,19,-1
 60 392 l 1,20,-1
 60 611 l 1,21,-1
 97 649 l 1,22,-1
 135 611 l 1,23,-1
 135 411 l 1,18,-1
60 89 m 1,24,-1
 97 51 l 1,25,-1
 135 89 l 1,26,-1
 135 289 l 1,27,-1
 88 336 l 1,28,-1
 60 307 l 1,29,-1
 60 89 l 1,24,-1
148 0 m 1,30,-1
 111 37 l 1,31,-1
 148 75 l 1,32,-1
 391 75 l 1,33,-1
 428 37 l 1,34,-1
 391 0 l 1,35,-1
 148 0 l 1,30,-1
EndSplineSet
Validated: 9
EndChar

StartChar: P
Encoding: 80 80 51
Width: 539
Flags: W
LayerCount: 2
Fore
SplineSet
479 392 m 1,0,-1
 452 364 l 1,1,-1
 405 411 l 1,2,-1
 405 611 l 1,3,-1
 442 649 l 1,4,-1
 479 611 l 1,5,-1
 479 392 l 1,0,-1
428 663 m 1,6,-1
 391 625 l 1,7,-1
 148 625 l 1,8,-1
 74 700 l 1,9,-1
 391 700 l 1,10,-1
 428 663 l 1,6,-1
135 411 m 1,11,-1
 88 364 l 1,12,-1
 60 392 l 1,13,-1
 60 686 l 1,14,-1
 135 611 l 1,15,-1
 135 411 l 1,11,-1
135 75 m 1,16,-1
 60 0 l 1,17,-1
 60 307 l 1,18,-1
 88 336 l 1,19,-1
 135 289 l 1,20,-1
 135 75 l 1,16,-1
400 387 m 1,21,-1
 438 350 l 1,22,-1
 400 313 l 1,23,-1
 139 313 l 1,24,-1
 102 350 l 1,25,-1
 139 387 l 1,26,-1
 400 387 l 1,21,-1
EndSplineSet
Validated: 1
EndChar

StartChar: Q
Encoding: 81 81 52
Width: 539
Flags: W
LayerCount: 2
Fore
SplineSet
479 392 m 1,0,-1
 452 364 l 1,1,-1
 405 411 l 1,2,-1
 405 611 l 1,3,-1
 442 649 l 1,4,-1
 479 611 l 1,5,-1
 479 392 l 1,0,-1
428 663 m 1,6,-1
 391 625 l 1,7,-1
 148 625 l 1,8,-1
 111 663 l 1,9,-1
 148 700 l 1,10,-1
 391 700 l 1,11,-1
 428 663 l 1,6,-1
479 155 m 1,12,-1
 442 118 l 1,13,-1
 405 155 l 1,14,-1
 405 289 l 1,15,-1
 452 336 l 1,16,-1
 479 307 l 1,17,-1
 479 155 l 1,12,-1
135 411 m 1,18,-1
 88 364 l 1,19,-1
 60 392 l 1,20,-1
 60 611 l 1,21,-1
 97 649 l 1,22,-1
 135 611 l 1,23,-1
 135 411 l 1,18,-1
60 89 m 1,24,-1
 97 51 l 1,25,-1
 135 89 l 1,26,-1
 135 289 l 1,27,-1
 88 336 l 1,28,-1
 60 307 l 1,29,-1
 60 89 l 1,24,-1
148 0 m 1,30,-1
 111 37 l 1,31,-1
 148 75 l 1,32,-1
 324 75 l 1,33,-1
 361 37 l 1,34,-1
 324 0 l 1,35,-1
 148 0 l 1,30,-1
338 89 m 1,36,-1
 338 142 l 1,37,-1
 391 142 l 1,38,-1
 479 53 l 1,39,-1
 479 0 l 1,40,-1
 426 0 l 1,41,-1
 338 89 l 1,36,-1
EndSplineSet
Validated: 9
EndChar

StartChar: R
Encoding: 82 82 53
Width: 539
Flags: W
LayerCount: 2
Fore
SplineSet
479 392 m 1,0,-1
 452 364 l 1,1,-1
 405 411 l 1,2,-1
 405 611 l 1,3,-1
 442 649 l 1,4,-1
 479 611 l 1,5,-1
 479 392 l 1,0,-1
428 663 m 1,6,-1
 391 625 l 1,7,-1
 148 625 l 1,8,-1
 74 700 l 1,9,-1
 391 700 l 1,10,-1
 428 663 l 1,6,-1
135 411 m 1,11,-1
 88 364 l 1,12,-1
 60 392 l 1,13,-1
 60 686 l 1,14,-1
 135 611 l 1,15,-1
 135 411 l 1,11,-1
135 75 m 1,16,-1
 60 0 l 1,17,-1
 60 307 l 1,18,-1
 88 336 l 1,19,-1
 135 289 l 1,20,-1
 135 75 l 1,16,-1
186 241 m 1,21,-1
 186 294 l 1,22,-1
 239 294 l 1,23,-1
 479 53 l 1,24,-1
 479 0 l 1,25,-1
 426 0 l 1,26,-1
 186 241 l 1,21,-1
400 387 m 1,27,-1
 438 350 l 1,28,-1
 400 313 l 1,29,-1
 139 313 l 1,30,-1
 102 350 l 1,31,-1
 139 387 l 1,32,-1
 400 387 l 1,27,-1
EndSplineSet
Validated: 1
EndChar

StartChar: S
Encoding: 83 83 54
Width: 539
Flags: W
LayerCount: 2
Fore
SplineSet
479 663 m 1,0,-1
 442 625 l 1,1,-1
 148 625 l 1,2,-1
 111 663 l 1,3,-1
 148 700 l 1,4,-1
 442 700 l 1,5,-1
 479 663 l 1,0,-1
479 89 m 1,6,-1
 442 51 l 1,7,-1
 405 89 l 1,8,-1
 405 289 l 1,9,-1
 452 336 l 1,10,-1
 479 307 l 1,11,-1
 479 89 l 1,6,-1
135 411 m 1,12,-1
 88 364 l 1,13,-1
 60 392 l 1,14,-1
 60 611 l 1,15,-1
 97 649 l 1,16,-1
 135 611 l 1,17,-1
 135 411 l 1,12,-1
97 0 m 1,18,-1
 60 37 l 1,19,-1
 97 75 l 1,20,-1
 391 75 l 1,21,-1
 428 37 l 1,22,-1
 391 0 l 1,23,-1
 97 0 l 1,18,-1
400 387 m 1,24,-1
 438 350 l 1,25,-1
 400 313 l 1,26,-1
 139 313 l 1,27,-1
 102 350 l 1,28,-1
 139 387 l 1,29,-1
 400 387 l 1,24,-1
EndSplineSet
Validated: 1
EndChar

StartChar: T
Encoding: 84 84 55
Width: 539
Flags: W
LayerCount: 2
Fore
SplineSet
479 700 m 1,0,-1
 405 625 l 1,1,-1
 135 625 l 1,2,-1
 60 700 l 1,3,-1
 479 700 l 1,0,-1
307 37 m 1,4,-1
 269 0 l 1,5,-1
 232 37 l 1,6,-1
 232 252 l 1,7,-1
 279 299 l 1,8,-1
 307 271 l 1,9,-1
 307 37 l 1,4,-1
307 354 m 1,10,-1
 279 327 l 1,11,-1
 232 373 l 1,12,-1
 232 574 l 1,13,-1
 269 611 l 1,14,-1
 307 574 l 1,15,-1
 307 354 l 1,10,-1
EndSplineSet
Validated: 1
EndChar

StartChar: U
Encoding: 85 85 56
Width: 539
Flags: W
LayerCount: 2
Fore
SplineSet
479 89 m 1,0,-1
 442 51 l 1,1,-1
 405 89 l 1,2,-1
 405 289 l 1,3,-1
 452 336 l 1,4,-1
 479 307 l 1,5,-1
 479 89 l 1,0,-1
60 89 m 1,6,-1
 97 51 l 1,7,-1
 135 89 l 1,8,-1
 135 289 l 1,9,-1
 88 336 l 1,10,-1
 60 307 l 1,11,-1
 60 89 l 1,6,-1
148 0 m 1,12,-1
 111 37 l 1,13,-1
 148 75 l 1,14,-1
 391 75 l 1,15,-1
 428 37 l 1,16,-1
 391 0 l 1,17,-1
 148 0 l 1,12,-1
60 392 m 1,18,-1
 60 700 l 1,19,-1
 135 625 l 1,20,-1
 135 411 l 1,21,-1
 88 364 l 1,22,-1
 60 392 l 1,18,-1
405 411 m 1,23,-1
 405 625 l 1,24,-1
 479 700 l 1,25,-1
 479 392 l 1,26,-1
 452 364 l 1,27,-1
 405 411 l 1,23,-1
EndSplineSet
Validated: 9
EndChar

StartChar: V
Encoding: 86 86 57
Width: 539
Flags: W
LayerCount: 2
Fore
SplineSet
479 392 m 1,0,-1
 452 364 l 1,1,-1
 405 411 l 1,2,-1
 405 625 l 1,3,-1
 479 700 l 1,4,-1
 479 392 l 1,0,-1
446 282 m 1,5,-1
 201 37 l 1,6,-1
 148 37 l 1,7,-1
 148 90 l 1,8,-1
 393 336 l 1,9,-1
 452 337 l 1,10,-1
 446 282 l 1,5,-1
135 411 m 1,11,-1
 88 364 l 1,12,-1
 60 392 l 1,13,-1
 60 700 l 1,14,-1
 135 625 l 1,15,-1
 135 411 l 1,11,-1
60 37 m 1,16,-1
 97 0 l 1,17,-1
 135 37 l 1,18,-1
 135 289 l 1,19,-1
 88 336 l 1,20,-1
 60 307 l 1,21,-1
 60 37 l 1,16,-1
EndSplineSet
Validated: 9
EndChar

StartChar: W
Encoding: 87 87 58
Width: 539
Flags: W
LayerCount: 2
Fore
SplineSet
479 392 m 1,0,-1
 452 364 l 1,1,-1
 405 411 l 1,2,-1
 405 625 l 1,3,-1
 479 700 l 1,4,-1
 479 392 l 1,0,-1
135 411 m 1,5,-1
 88 364 l 1,6,-1
 60 392 l 1,7,-1
 60 700 l 1,8,-1
 135 625 l 1,9,-1
 135 411 l 1,5,-1
479 14 m 1,10,-1
 405 89 l 1,11,-1
 405 289 l 1,12,-1
 452 336 l 1,13,-1
 479 307 l 1,14,-1
 479 14 l 1,10,-1
307 130 m 1,15,-1
 269 93 l 1,16,-1
 232 130 l 1,17,-1
 232 298 l 1,18,-1
 269 336 l 1,19,-1
 307 298 l 1,20,-1
 307 130 l 1,15,-1
465 0 m 1,21,-1
 74 0 l 1,22,-1
 148 75 l 1,23,-1
 391 75 l 1,24,-1
 465 0 l 1,21,-1
135 89 m 1,25,-1
 60 14 l 1,26,-1
 60 307 l 1,27,-1
 88 336 l 1,28,-1
 135 289 l 1,29,-1
 135 89 l 1,25,-1
EndSplineSet
Validated: 1
EndChar

StartChar: X
Encoding: 88 88 59
Width: 539
Flags: W
LayerCount: 2
Fore
SplineSet
284 364 m 1,0,-1
 284 446 l 1,1,-1
 436 700 l 1,2,-1
 479 700 l 1,3,-1
 479 627 l 1,4,-1
 322 364 l 1,5,-1
 284 364 l 1,0,-1
218 364 m 1,6,-1
 60 627 l 1,7,-1
 60 700 l 1,8,-1
 103 700 l 1,9,-1
 255 446 l 1,10,-1
 255 364 l 1,11,-1
 218 364 l 1,6,-1
255 336 m 1,12,-1
 255 254 l 1,13,-1
 103 0 l 1,14,-1
 60 0 l 1,15,-1
 60 73 l 1,16,-1
 218 336 l 1,17,-1
 255 336 l 1,12,-1
321 336 m 1,18,-1
 479 73 l 1,19,-1
 479 0 l 1,20,-1
 436 0 l 1,21,-1
 284 254 l 1,22,-1
 284 336 l 1,23,-1
 321 336 l 1,18,-1
EndSplineSet
Validated: 1
EndChar

StartChar: Y
Encoding: 89 89 60
Width: 539
Flags: W
LayerCount: 2
Fore
SplineSet
479 392 m 1,0,-1
 452 364 l 1,1,-1
 405 411 l 1,2,-1
 405 625 l 1,3,-1
 479 700 l 1,4,-1
 479 392 l 1,0,-1
60 392 m 1,5,-1
 88 364 l 1,6,-1
 135 411 l 1,7,-1
 135 625 l 1,8,-1
 60 700 l 1,9,-1
 60 392 l 1,5,-1
148 0 m 1,10,-1
 111 37 l 1,11,-1
 148 75 l 1,12,-1
 391 75 l 1,13,-1
 428 37 l 1,14,-1
 391 0 l 1,15,-1
 148 0 l 1,10,-1
479 89 m 1,16,-1
 442 51 l 1,17,-1
 405 89 l 1,18,-1
 405 289 l 1,19,-1
 452 336 l 1,20,-1
 479 307 l 1,21,-1
 479 89 l 1,16,-1
400 387 m 1,22,-1
 438 350 l 1,23,-1
 400 313 l 1,24,-1
 139 313 l 1,25,-1
 102 350 l 1,26,-1
 139 387 l 1,27,-1
 400 387 l 1,22,-1
EndSplineSet
Validated: 9
EndChar

StartChar: Z
Encoding: 90 90 61
Width: 539
Flags: W
LayerCount: 2
Fore
SplineSet
479 663 m 1,0,-1
 442 625 l 1,1,-1
 135 625 l 1,2,-1
 60 700 l 1,3,-1
 442 700 l 1,4,-1
 479 663 l 1,0,-1
465 0 m 1,5,-1
 97 0 l 1,6,-1
 60 37 l 1,7,-1
 97 75 l 1,8,-1
 391 75 l 1,9,-1
 465 0 l 1,5,-1
334 369 m 1,10,-1
 268 361 l 1,11,-1
 265 401 l 1,12,-1
 427 606 l 1,13,-1
 479 606 l 1,14,-1
 479 551 l 1,15,-1
 334 369 l 1,10,-1
211 336 m 1,16,-1
 251 340 l 1,17,-1
 260 274 l 1,18,-1
 115 93 l 1,19,-1
 60 93 l 1,20,-1
 60 145 l 1,21,-1
 211 336 l 1,16,-1
EndSplineSet
Validated: 1
EndChar

StartChar: bracketleft
Encoding: 91 91 62
Width: 353
Flags: W
LayerCount: 2
Fore
SplineSet
293 700 m 1,0,-1
 218 625 l 1,1,-1
 148 625 l 1,2,-1
 74 700 l 1,3,-1
 293 700 l 1,0,-1
293 0 m 1,4,-1
 74 0 l 1,5,-1
 148 75 l 1,6,-1
 218 75 l 1,7,-1
 293 0 l 1,4,-1
135 289 m 1,8,-1
 135 89 l 1,9,-1
 60 14 l 1,10,-1
 60 307 l 1,11,-1
 88 336 l 1,12,-1
 135 289 l 1,8,-1
60 392 m 1,13,-1
 60 686 l 1,14,-1
 135 611 l 1,15,-1
 135 411 l 1,16,-1
 88 364 l 1,17,-1
 60 392 l 1,13,-1
EndSplineSet
Validated: 1
EndChar

StartChar: backslash
Encoding: 92 92 63
Width: 506
Flags: W
LayerCount: 2
Fore
SplineSet
274 446 m 1,0,-1
 256 382 l 1,1,-1
 218 393 l 1,2,-1
 36 707 l 1,3,-1
 138 680 l 1,4,-1
 274 446 l 1,0,-1
470 106 m 1,5,-1
 442 4 l 1,6,-1
 261 320 l 1,7,-1
 270 358 l 1,8,-1
 334 340 l 1,9,-1
 470 106 l 1,5,-1
EndSplineSet
Validated: 1
EndChar

StartChar: bracketright
Encoding: 93 93 64
Width: 353
Flags: W
LayerCount: 2
Fore
SplineSet
279 700 m 1,0,-1
 204 625 l 1,1,-1
 135 625 l 1,2,-1
 60 700 l 1,3,-1
 279 700 l 1,0,-1
293 392 m 1,4,-1
 265 364 l 1,5,-1
 218 411 l 1,6,-1
 218 611 l 1,7,-1
 293 686 l 1,8,-1
 293 392 l 1,4,-1
293 14 m 1,9,-1
 218 89 l 1,10,-1
 218 289 l 1,11,-1
 265 336 l 1,12,-1
 293 307 l 1,13,-1
 293 14 l 1,9,-1
279 0 m 1,14,-1
 60 0 l 1,15,-1
 135 75 l 1,16,-1
 204 75 l 1,17,-1
 279 0 l 1,14,-1
EndSplineSet
Validated: 1
EndChar

StartChar: asciicircum
Encoding: 94 94 65
Width: 492
Flags: W
LayerCount: 2
Fore
SplineSet
380 469 m 1,0,-1
 254 594 l 1,1,-1
 254 700 l 1,2,-1
 432 523 l 1,3,-1
 432 469 l 1,4,-1
 380 469 l 1,0,-1
60 472 m 1,5,-1
 60 525 l 1,6,-1
 234 700 l 1,7,-1
 234 594 l 1,8,-1
 112 472 l 1,9,-1
 60 472 l 1,5,-1
EndSplineSet
Validated: 1
EndChar

StartChar: underscore
Encoding: 95 95 66
Width: 445
Flags: W
LayerCount: 2
Fore
SplineSet
381 -112 m 1,0,-1
 419 -149 l 1,1,-1
 381 -187 l 1,2,-1
 64 -187 l 1,3,-1
 27 -149 l 1,4,-1
 64 -112 l 1,5,-1
 381 -112 l 1,0,-1
EndSplineSet
Validated: 1
EndChar

StartChar: grave
Encoding: 96 96 67
Width: 249
Flags: W
LayerCount: 2
Fore
SplineSet
189 594 m 1,0,-1
 175 543 l 1,1,-1
 125 557 l 1,2,-1
 60 670 l 1,3,-1
 124 707 l 1,4,-1
 189 594 l 1,0,-1
EndSplineSet
Validated: 1
EndChar

StartChar: a
Encoding: 97 97 68
Width: 539
Flags: W
LayerCount: 2
Fore
SplineSet
465 700 m 1,0,-1
 391 625 l 1,1,-1
 148 625 l 1,2,-1
 74 700 l 1,3,-1
 465 700 l 1,0,-1
135 289 m 1,4,-1
 135 75 l 1,5,-1
 60 0 l 1,6,-1
 60 307 l 1,7,-1
 88 336 l 1,8,-1
 135 289 l 1,4,-1
60 392 m 1,9,-1
 60 686 l 1,10,-1
 135 611 l 1,11,-1
 135 411 l 1,12,-1
 88 364 l 1,13,-1
 60 392 l 1,9,-1
479 307 m 1,14,-1
 479 0 l 1,15,-1
 405 75 l 1,16,-1
 405 289 l 1,17,-1
 452 336 l 1,18,-1
 479 307 l 1,14,-1
405 411 m 1,19,-1
 405 611 l 1,20,-1
 479 686 l 1,21,-1
 479 392 l 1,22,-1
 452 364 l 1,23,-1
 405 411 l 1,19,-1
400 387 m 1,24,-1
 438 350 l 1,25,-1
 400 313 l 1,26,-1
 139 313 l 1,27,-1
 102 350 l 1,28,-1
 139 387 l 1,29,-1
 400 387 l 1,24,-1
EndSplineSet
Validated: 1
EndChar

StartChar: b
Encoding: 98 98 69
Width: 539
Flags: W
LayerCount: 2
Fore
SplineSet
479 89 m 1,0,-1
 442 51 l 1,1,-1
 405 89 l 1,2,-1
 405 289 l 1,3,-1
 452 336 l 1,4,-1
 479 307 l 1,5,-1
 479 89 l 1,0,-1
479 392 m 1,6,-1
 452 364 l 1,7,-1
 405 411 l 1,8,-1
 405 611 l 1,9,-1
 442 649 l 1,10,-1
 479 611 l 1,11,-1
 479 392 l 1,6,-1
428 663 m 1,12,-1
 391 625 l 1,13,-1
 148 625 l 1,14,-1
 74 700 l 1,15,-1
 391 700 l 1,16,-1
 428 663 l 1,12,-1
428 37 m 1,17,-1
 391 0 l 1,18,-1
 74 0 l 1,19,-1
 148 75 l 1,20,-1
 391 75 l 1,21,-1
 428 37 l 1,17,-1
135 411 m 1,22,-1
 88 364 l 1,23,-1
 60 392 l 1,24,-1
 60 686 l 1,25,-1
 135 611 l 1,26,-1
 135 411 l 1,22,-1
135 89 m 1,27,-1
 60 14 l 1,28,-1
 60 307 l 1,29,-1
 88 336 l 1,30,-1
 135 289 l 1,31,-1
 135 89 l 1,27,-1
400 387 m 1,32,-1
 438 350 l 1,33,-1
 400 313 l 1,34,-1
 139 313 l 1,35,-1
 102 350 l 1,36,-1
 139 387 l 1,37,-1
 400 387 l 1,32,-1
EndSplineSet
Validated: 1
EndChar

StartChar: c
Encoding: 99 99 70
Width: 539
Flags: W
LayerCount: 2
Fore
SplineSet
479 700 m 1,0,-1
 405 625 l 1,1,-1
 148 625 l 1,2,-1
 111 663 l 1,3,-1
 148 700 l 1,4,-1
 479 700 l 1,0,-1
135 411 m 1,5,-1
 88 364 l 1,6,-1
 60 392 l 1,7,-1
 60 611 l 1,8,-1
 97 649 l 1,9,-1
 135 611 l 1,10,-1
 135 411 l 1,5,-1
479 0 m 1,11,-1
 148 0 l 1,12,-1
 111 37 l 1,13,-1
 148 75 l 1,14,-1
 405 75 l 1,15,-1
 479 0 l 1,11,-1
135 89 m 1,16,-1
 97 51 l 1,17,-1
 60 89 l 1,18,-1
 60 307 l 1,19,-1
 88 336 l 1,20,-1
 135 289 l 1,21,-1
 135 89 l 1,16,-1
EndSplineSet
Validated: 1
EndChar

StartChar: d
Encoding: 100 100 71
Width: 539
Flags: W
LayerCount: 2
Fore
SplineSet
479 89 m 1,0,-1
 442 51 l 1,1,-1
 405 89 l 1,2,-1
 405 289 l 1,3,-1
 452 336 l 1,4,-1
 479 307 l 1,5,-1
 479 89 l 1,0,-1
479 392 m 1,6,-1
 452 364 l 1,7,-1
 405 411 l 1,8,-1
 405 611 l 1,9,-1
 442 649 l 1,10,-1
 479 611 l 1,11,-1
 479 392 l 1,6,-1
428 663 m 1,12,-1
 391 625 l 1,13,-1
 148 625 l 1,14,-1
 74 700 l 1,15,-1
 391 700 l 1,16,-1
 428 663 l 1,12,-1
428 37 m 1,17,-1
 391 0 l 1,18,-1
 74 0 l 1,19,-1
 148 75 l 1,20,-1
 391 75 l 1,21,-1
 428 37 l 1,17,-1
135 411 m 1,22,-1
 88 364 l 1,23,-1
 60 392 l 1,24,-1
 60 686 l 1,25,-1
 135 611 l 1,26,-1
 135 411 l 1,22,-1
135 89 m 1,27,-1
 60 14 l 1,28,-1
 60 307 l 1,29,-1
 88 336 l 1,30,-1
 135 289 l 1,31,-1
 135 89 l 1,27,-1
EndSplineSet
Validated: 1
EndChar

StartChar: e
Encoding: 101 101 72
Width: 539
Flags: W
LayerCount: 2
Fore
SplineSet
479 700 m 1,0,-1
 405 625 l 1,1,-1
 148 625 l 1,2,-1
 74 700 l 1,3,-1
 479 700 l 1,0,-1
479 0 m 1,4,-1
 74 0 l 1,5,-1
 148 75 l 1,6,-1
 405 75 l 1,7,-1
 479 0 l 1,4,-1
135 289 m 1,8,-1
 135 89 l 1,9,-1
 60 14 l 1,10,-1
 60 307 l 1,11,-1
 88 336 l 1,12,-1
 135 289 l 1,8,-1
60 392 m 1,13,-1
 60 686 l 1,14,-1
 135 611 l 1,15,-1
 135 411 l 1,16,-1
 88 364 l 1,17,-1
 60 392 l 1,13,-1
400 387 m 1,18,-1
 438 350 l 1,19,-1
 400 313 l 1,20,-1
 139 313 l 1,21,-1
 102 350 l 1,22,-1
 139 387 l 1,23,-1
 400 387 l 1,18,-1
EndSplineSet
Validated: 1
EndChar

StartChar: f
Encoding: 102 102 73
Width: 539
Flags: W
LayerCount: 2
Fore
SplineSet
479 700 m 1,0,-1
 405 625 l 1,1,-1
 148 625 l 1,2,-1
 74 700 l 1,3,-1
 479 700 l 1,0,-1
135 289 m 1,4,-1
 135 89 l 1,5,-1
 60 14 l 1,6,-1
 60 307 l 1,7,-1
 88 336 l 1,8,-1
 135 289 l 1,4,-1
60 392 m 1,9,-1
 60 686 l 1,10,-1
 135 611 l 1,11,-1
 135 411 l 1,12,-1
 88 364 l 1,13,-1
 60 392 l 1,9,-1
400 387 m 1,14,-1
 438 350 l 1,15,-1
 400 313 l 1,16,-1
 139 313 l 1,17,-1
 102 350 l 1,18,-1
 139 387 l 1,19,-1
 400 387 l 1,14,-1
EndSplineSet
Validated: 1
EndChar

StartChar: g
Encoding: 103 103 74
Width: 539
Flags: W
LayerCount: 2
Fore
SplineSet
465 700 m 1,0,-1
 391 625 l 1,1,-1
 148 625 l 1,2,-1
 111 663 l 1,3,-1
 148 700 l 1,4,-1
 465 700 l 1,0,-1
438 350 m 1,5,-1
 400 313 l 1,6,-1
 316 313 l 1,7,-1
 279 350 l 1,8,-1
 316 387 l 1,9,-1
 400 387 l 1,10,-1
 438 350 l 1,5,-1
135 411 m 1,11,-1
 88 364 l 1,12,-1
 60 392 l 1,13,-1
 60 611 l 1,14,-1
 97 649 l 1,15,-1
 135 611 l 1,16,-1
 135 411 l 1,11,-1
135 89 m 1,17,-1
 97 51 l 1,18,-1
 60 89 l 1,19,-1
 60 307 l 1,20,-1
 88 336 l 1,21,-1
 135 289 l 1,22,-1
 135 89 l 1,17,-1
391 0 m 1,23,-1
 428 37 l 1,24,-1
 391 75 l 1,25,-1
 148 75 l 1,26,-1
 111 37 l 1,27,-1
 148 0 l 1,28,-1
 391 0 l 1,23,-1
479 89 m 1,29,-1
 442 51 l 1,30,-1
 405 89 l 1,31,-1
 405 289 l 1,32,-1
 452 336 l 1,33,-1
 479 307 l 1,34,-1
 479 89 l 1,29,-1
EndSplineSet
Validated: 9
EndChar

StartChar: h
Encoding: 104 104 75
Width: 539
Flags: W
LayerCount: 2
Fore
SplineSet
135 289 m 1,0,-1
 135 75 l 1,1,-1
 60 0 l 1,2,-1
 60 307 l 1,3,-1
 88 336 l 1,4,-1
 135 289 l 1,0,-1
60 392 m 1,5,-1
 60 700 l 1,6,-1
 135 625 l 1,7,-1
 135 411 l 1,8,-1
 88 364 l 1,9,-1
 60 392 l 1,5,-1
479 307 m 1,10,-1
 479 0 l 1,11,-1
 405 75 l 1,12,-1
 405 289 l 1,13,-1
 452 336 l 1,14,-1
 479 307 l 1,10,-1
405 411 m 1,15,-1
 405 625 l 1,16,-1
 479 700 l 1,17,-1
 479 392 l 1,18,-1
 452 364 l 1,19,-1
 405 411 l 1,15,-1
400 387 m 1,20,-1
 438 350 l 1,21,-1
 400 313 l 1,22,-1
 139 313 l 1,23,-1
 102 350 l 1,24,-1
 139 387 l 1,25,-1
 400 387 l 1,20,-1
EndSplineSet
Validated: 1
EndChar

StartChar: i
Encoding: 105 105 76
Width: 287
Flags: W
LayerCount: 2
Fore
SplineSet
181 392 m 1,0,-1
 153 364 l 1,1,-1
 106 411 l 1,2,-1
 106 663 l 1,3,-1
 143 700 l 1,4,-1
 181 663 l 1,5,-1
 181 392 l 1,0,-1
181 37 m 1,6,-1
 143 0 l 1,7,-1
 106 37 l 1,8,-1
 106 289 l 1,9,-1
 153 336 l 1,10,-1
 181 307 l 1,11,-1
 181 37 l 1,6,-1
EndSplineSet
Validated: 1
EndChar

StartChar: j
Encoding: 106 106 77
Width: 539
Flags: W
LayerCount: 2
Fore
SplineSet
465 0 m 1,0,-1
 74 0 l 1,1,-1
 148 75 l 1,2,-1
 391 75 l 1,3,-1
 465 0 l 1,0,-1
135 196 m 1,4,-1
 135 89 l 1,5,-1
 60 14 l 1,6,-1
 60 215 l 1,7,-1
 88 242 l 1,8,-1
 135 196 l 1,4,-1
479 307 m 1,9,-1
 479 14 l 1,10,-1
 405 89 l 1,11,-1
 405 289 l 1,12,-1
 452 336 l 1,13,-1
 479 307 l 1,9,-1
405 411 m 1,14,-1
 405 625 l 1,15,-1
 479 700 l 1,16,-1
 479 392 l 1,17,-1
 452 364 l 1,18,-1
 405 411 l 1,14,-1
EndSplineSet
Validated: 1
EndChar

StartChar: k
Encoding: 107 107 78
Width: 539
Flags: W
LayerCount: 2
Fore
SplineSet
135 289 m 1,0,-1
 135 75 l 1,1,-1
 60 0 l 1,2,-1
 60 307 l 1,3,-1
 88 336 l 1,4,-1
 135 289 l 1,0,-1
60 392 m 1,5,-1
 60 700 l 1,6,-1
 135 625 l 1,7,-1
 135 411 l 1,8,-1
 88 364 l 1,9,-1
 60 392 l 1,5,-1
479 307 m 1,10,-1
 479 0 l 1,11,-1
 405 75 l 1,12,-1
 405 289 l 1,13,-1
 452 336 l 1,14,-1
 479 307 l 1,10,-1
391 697 m 1,15,-1
 444 697 l 1,16,-1
 444 644 l 1,17,-1
 206 409 l 1,18,-1
 153 409 l 1,19,-1
 153 462 l 1,20,-1
 391 697 l 1,15,-1
400 387 m 1,21,-1
 438 350 l 1,22,-1
 400 313 l 1,23,-1
 139 313 l 1,24,-1
 102 350 l 1,25,-1
 139 387 l 1,26,-1
 400 387 l 1,21,-1
EndSplineSet
Validated: 1
EndChar

StartChar: l
Encoding: 108 108 79
Width: 539
Flags: W
LayerCount: 2
Fore
SplineSet
479 0 m 1,0,-1
 74 0 l 1,1,-1
 148 75 l 1,2,-1
 405 75 l 1,3,-1
 479 0 l 1,0,-1
135 289 m 1,4,-1
 135 89 l 1,5,-1
 60 14 l 1,6,-1
 60 307 l 1,7,-1
 88 336 l 1,8,-1
 135 289 l 1,4,-1
60 392 m 1,9,-1
 60 700 l 1,10,-1
 135 625 l 1,11,-1
 135 411 l 1,12,-1
 88 364 l 1,13,-1
 60 392 l 1,9,-1
EndSplineSet
Validated: 1
EndChar

StartChar: m
Encoding: 109 109 80
Width: 539
Flags: W
LayerCount: 2
Fore
SplineSet
465 700 m 1,0,-1
 391 625 l 1,1,-1
 148 625 l 1,2,-1
 74 700 l 1,3,-1
 465 700 l 1,0,-1
135 289 m 1,4,-1
 135 75 l 1,5,-1
 60 0 l 1,6,-1
 60 307 l 1,7,-1
 88 336 l 1,8,-1
 135 289 l 1,4,-1
60 392 m 1,9,-1
 60 686 l 1,10,-1
 135 611 l 1,11,-1
 135 411 l 1,12,-1
 88 364 l 1,13,-1
 60 392 l 1,9,-1
479 307 m 1,14,-1
 479 0 l 1,15,-1
 405 75 l 1,16,-1
 405 289 l 1,17,-1
 452 336 l 1,18,-1
 479 307 l 1,14,-1
405 411 m 1,19,-1
 405 611 l 1,20,-1
 479 686 l 1,21,-1
 479 392 l 1,22,-1
 452 364 l 1,23,-1
 405 411 l 1,19,-1
232 569 m 1,24,-1
 269 606 l 1,25,-1
 307 569 l 1,26,-1
 307 402 l 1,27,-1
 269 364 l 1,28,-1
 232 402 l 1,29,-1
 232 569 l 1,24,-1
EndSplineSet
Validated: 1
EndChar

StartChar: n
Encoding: 110 110 81
Width: 539
Flags: W
LayerCount: 2
Fore
SplineSet
135 289 m 1,0,-1
 135 75 l 1,1,-1
 60 0 l 1,2,-1
 60 307 l 1,3,-1
 88 336 l 1,4,-1
 135 289 l 1,0,-1
60 392 m 1,5,-1
 60 700 l 1,6,-1
 135 625 l 1,7,-1
 135 411 l 1,8,-1
 88 364 l 1,9,-1
 60 392 l 1,5,-1
479 307 m 1,10,-1
 479 0 l 1,11,-1
 405 75 l 1,12,-1
 405 289 l 1,13,-1
 452 336 l 1,14,-1
 479 307 l 1,10,-1
405 411 m 1,15,-1
 405 625 l 1,16,-1
 479 700 l 1,17,-1
 479 392 l 1,18,-1
 452 364 l 1,19,-1
 405 411 l 1,15,-1
152 571 m 1,20,-1
 152 625 l 1,21,-1
 205 625 l 1,22,-1
 387 443 l 1,23,-1
 387 390 l 1,24,-1
 334 390 l 1,25,-1
 152 571 l 1,20,-1
EndSplineSet
Validated: 1
EndChar

StartChar: o
Encoding: 111 111 82
Width: 539
Flags: W
LayerCount: 2
Fore
SplineSet
479 392 m 1,0,-1
 452 364 l 1,1,-1
 405 411 l 1,2,-1
 405 611 l 1,3,-1
 442 649 l 1,4,-1
 479 611 l 1,5,-1
 479 392 l 1,0,-1
428 663 m 1,6,-1
 391 625 l 1,7,-1
 148 625 l 1,8,-1
 111 663 l 1,9,-1
 148 700 l 1,10,-1
 391 700 l 1,11,-1
 428 663 l 1,6,-1
479 89 m 1,12,-1
 442 51 l 1,13,-1
 405 89 l 1,14,-1
 405 289 l 1,15,-1
 452 336 l 1,16,-1
 479 307 l 1,17,-1
 479 89 l 1,12,-1
135 411 m 1,18,-1
 88 364 l 1,19,-1
 60 392 l 1,20,-1
 60 611 l 1,21,-1
 97 649 l 1,22,-1
 135 611 l 1,23,-1
 135 411 l 1,18,-1
60 89 m 1,24,-1
 97 51 l 1,25,-1
 135 89 l 1,26,-1
 135 289 l 1,27,-1
 88 336 l 1,28,-1
 60 307 l 1,29,-1
 60 89 l 1,24,-1
148 0 m 1,30,-1
 111 37 l 1,31,-1
 148 75 l 1,32,-1
 391 75 l 1,33,-1
 428 37 l 1,34,-1
 391 0 l 1,35,-1
 148 0 l 1,30,-1
EndSplineSet
Validated: 9
EndChar

StartChar: p
Encoding: 112 112 83
Width: 539
Flags: W
LayerCount: 2
Fore
SplineSet
479 392 m 1,0,-1
 452 364 l 1,1,-1
 405 411 l 1,2,-1
 405 611 l 1,3,-1
 442 649 l 1,4,-1
 479 611 l 1,5,-1
 479 392 l 1,0,-1
428 663 m 1,6,-1
 391 625 l 1,7,-1
 148 625 l 1,8,-1
 74 700 l 1,9,-1
 391 700 l 1,10,-1
 428 663 l 1,6,-1
135 411 m 1,11,-1
 88 364 l 1,12,-1
 60 392 l 1,13,-1
 60 686 l 1,14,-1
 135 611 l 1,15,-1
 135 411 l 1,11,-1
135 75 m 1,16,-1
 60 0 l 1,17,-1
 60 307 l 1,18,-1
 88 336 l 1,19,-1
 135 289 l 1,20,-1
 135 75 l 1,16,-1
400 387 m 1,21,-1
 438 350 l 1,22,-1
 400 313 l 1,23,-1
 139 313 l 1,24,-1
 102 350 l 1,25,-1
 139 387 l 1,26,-1
 400 387 l 1,21,-1
EndSplineSet
Validated: 1
EndChar

StartChar: q
Encoding: 113 113 84
Width: 539
Flags: W
LayerCount: 2
Fore
SplineSet
479 392 m 1,0,-1
 452 364 l 1,1,-1
 405 411 l 1,2,-1
 405 611 l 1,3,-1
 442 649 l 1,4,-1
 479 611 l 1,5,-1
 479 392 l 1,0,-1
428 663 m 1,6,-1
 391 625 l 1,7,-1
 148 625 l 1,8,-1
 111 663 l 1,9,-1
 148 700 l 1,10,-1
 391 700 l 1,11,-1
 428 663 l 1,6,-1
479 155 m 1,12,-1
 442 118 l 1,13,-1
 405 155 l 1,14,-1
 405 289 l 1,15,-1
 452 336 l 1,16,-1
 479 307 l 1,17,-1
 479 155 l 1,12,-1
135 411 m 1,18,-1
 88 364 l 1,19,-1
 60 392 l 1,20,-1
 60 611 l 1,21,-1
 97 649 l 1,22,-1
 135 611 l 1,23,-1
 135 411 l 1,18,-1
60 89 m 1,24,-1
 97 51 l 1,25,-1
 135 89 l 1,26,-1
 135 289 l 1,27,-1
 88 336 l 1,28,-1
 60 307 l 1,29,-1
 60 89 l 1,24,-1
148 0 m 1,30,-1
 111 37 l 1,31,-1
 148 75 l 1,32,-1
 324 75 l 1,33,-1
 361 37 l 1,34,-1
 324 0 l 1,35,-1
 148 0 l 1,30,-1
338 89 m 1,36,-1
 338 142 l 1,37,-1
 391 142 l 1,38,-1
 479 53 l 1,39,-1
 479 0 l 1,40,-1
 426 0 l 1,41,-1
 338 89 l 1,36,-1
EndSplineSet
Validated: 9
EndChar

StartChar: r
Encoding: 114 114 85
Width: 539
Flags: W
LayerCount: 2
Fore
SplineSet
479 392 m 1,0,-1
 452 364 l 1,1,-1
 405 411 l 1,2,-1
 405 611 l 1,3,-1
 442 649 l 1,4,-1
 479 611 l 1,5,-1
 479 392 l 1,0,-1
428 663 m 1,6,-1
 391 625 l 1,7,-1
 148 625 l 1,8,-1
 74 700 l 1,9,-1
 391 700 l 1,10,-1
 428 663 l 1,6,-1
135 411 m 1,11,-1
 88 364 l 1,12,-1
 60 392 l 1,13,-1
 60 686 l 1,14,-1
 135 611 l 1,15,-1
 135 411 l 1,11,-1
135 75 m 1,16,-1
 60 0 l 1,17,-1
 60 307 l 1,18,-1
 88 336 l 1,19,-1
 135 289 l 1,20,-1
 135 75 l 1,16,-1
186 241 m 1,21,-1
 186 294 l 1,22,-1
 239 294 l 1,23,-1
 479 53 l 1,24,-1
 479 0 l 1,25,-1
 426 0 l 1,26,-1
 186 241 l 1,21,-1
400 387 m 1,27,-1
 438 350 l 1,28,-1
 400 313 l 1,29,-1
 139 313 l 1,30,-1
 102 350 l 1,31,-1
 139 387 l 1,32,-1
 400 387 l 1,27,-1
EndSplineSet
Validated: 1
EndChar

StartChar: s
Encoding: 115 115 86
Width: 539
Flags: W
LayerCount: 2
Fore
SplineSet
479 663 m 1,0,-1
 442 625 l 1,1,-1
 148 625 l 1,2,-1
 111 663 l 1,3,-1
 148 700 l 1,4,-1
 442 700 l 1,5,-1
 479 663 l 1,0,-1
479 89 m 1,6,-1
 442 51 l 1,7,-1
 405 89 l 1,8,-1
 405 289 l 1,9,-1
 452 336 l 1,10,-1
 479 307 l 1,11,-1
 479 89 l 1,6,-1
135 411 m 1,12,-1
 88 364 l 1,13,-1
 60 392 l 1,14,-1
 60 611 l 1,15,-1
 97 649 l 1,16,-1
 135 611 l 1,17,-1
 135 411 l 1,12,-1
97 0 m 1,18,-1
 60 37 l 1,19,-1
 97 75 l 1,20,-1
 391 75 l 1,21,-1
 428 37 l 1,22,-1
 391 0 l 1,23,-1
 97 0 l 1,18,-1
400 387 m 1,24,-1
 438 350 l 1,25,-1
 400 313 l 1,26,-1
 139 313 l 1,27,-1
 102 350 l 1,28,-1
 139 387 l 1,29,-1
 400 387 l 1,24,-1
EndSplineSet
Validated: 1
EndChar

StartChar: t
Encoding: 116 116 87
Width: 539
Flags: W
LayerCount: 2
Fore
SplineSet
479 700 m 1,0,-1
 405 625 l 1,1,-1
 135 625 l 1,2,-1
 60 700 l 1,3,-1
 479 700 l 1,0,-1
307 37 m 1,4,-1
 269 0 l 1,5,-1
 232 37 l 1,6,-1
 232 252 l 1,7,-1
 279 299 l 1,8,-1
 307 271 l 1,9,-1
 307 37 l 1,4,-1
307 354 m 1,10,-1
 279 327 l 1,11,-1
 232 373 l 1,12,-1
 232 574 l 1,13,-1
 269 611 l 1,14,-1
 307 574 l 1,15,-1
 307 354 l 1,10,-1
EndSplineSet
Validated: 1
EndChar

StartChar: u
Encoding: 117 117 88
Width: 539
Flags: W
LayerCount: 2
Fore
SplineSet
479 89 m 1,0,-1
 442 51 l 1,1,-1
 405 89 l 1,2,-1
 405 289 l 1,3,-1
 452 336 l 1,4,-1
 479 307 l 1,5,-1
 479 89 l 1,0,-1
60 89 m 1,6,-1
 97 51 l 1,7,-1
 135 89 l 1,8,-1
 135 289 l 1,9,-1
 88 336 l 1,10,-1
 60 307 l 1,11,-1
 60 89 l 1,6,-1
148 0 m 1,12,-1
 111 37 l 1,13,-1
 148 75 l 1,14,-1
 391 75 l 1,15,-1
 428 37 l 1,16,-1
 391 0 l 1,17,-1
 148 0 l 1,12,-1
60 392 m 1,18,-1
 60 700 l 1,19,-1
 135 625 l 1,20,-1
 135 411 l 1,21,-1
 88 364 l 1,22,-1
 60 392 l 1,18,-1
405 411 m 1,23,-1
 405 625 l 1,24,-1
 479 700 l 1,25,-1
 479 392 l 1,26,-1
 452 364 l 1,27,-1
 405 411 l 1,23,-1
EndSplineSet
Validated: 9
EndChar

StartChar: v
Encoding: 118 118 89
Width: 539
Flags: W
LayerCount: 2
Fore
SplineSet
479 392 m 1,0,-1
 452 364 l 1,1,-1
 405 411 l 1,2,-1
 405 625 l 1,3,-1
 479 700 l 1,4,-1
 479 392 l 1,0,-1
446 282 m 1,5,-1
 201 37 l 1,6,-1
 148 37 l 1,7,-1
 148 90 l 1,8,-1
 393 336 l 1,9,-1
 452 337 l 1,10,-1
 446 282 l 1,5,-1
135 411 m 1,11,-1
 88 364 l 1,12,-1
 60 392 l 1,13,-1
 60 700 l 1,14,-1
 135 625 l 1,15,-1
 135 411 l 1,11,-1
60 37 m 1,16,-1
 97 0 l 1,17,-1
 135 37 l 1,18,-1
 135 289 l 1,19,-1
 88 336 l 1,20,-1
 60 307 l 1,21,-1
 60 37 l 1,16,-1
EndSplineSet
Validated: 9
EndChar

StartChar: w
Encoding: 119 119 90
Width: 539
Flags: W
LayerCount: 2
Fore
SplineSet
479 392 m 1,0,-1
 452 364 l 1,1,-1
 405 411 l 1,2,-1
 405 625 l 1,3,-1
 479 700 l 1,4,-1
 479 392 l 1,0,-1
135 411 m 1,5,-1
 88 364 l 1,6,-1
 60 392 l 1,7,-1
 60 700 l 1,8,-1
 135 625 l 1,9,-1
 135 411 l 1,5,-1
479 14 m 1,10,-1
 405 89 l 1,11,-1
 405 289 l 1,12,-1
 452 336 l 1,13,-1
 479 307 l 1,14,-1
 479 14 l 1,10,-1
307 130 m 1,15,-1
 269 93 l 1,16,-1
 232 130 l 1,17,-1
 232 298 l 1,18,-1
 269 336 l 1,19,-1
 307 298 l 1,20,-1
 307 130 l 1,15,-1
465 0 m 1,21,-1
 74 0 l 1,22,-1
 148 75 l 1,23,-1
 391 75 l 1,24,-1
 465 0 l 1,21,-1
135 89 m 1,25,-1
 60 14 l 1,26,-1
 60 307 l 1,27,-1
 88 336 l 1,28,-1
 135 289 l 1,29,-1
 135 89 l 1,25,-1
EndSplineSet
Validated: 1
EndChar

StartChar: x
Encoding: 120 120 91
Width: 539
Flags: W
LayerCount: 2
Fore
SplineSet
284 364 m 1,0,-1
 284 446 l 1,1,-1
 436 700 l 1,2,-1
 479 700 l 1,3,-1
 479 627 l 1,4,-1
 322 364 l 1,5,-1
 284 364 l 1,0,-1
218 364 m 1,6,-1
 60 627 l 1,7,-1
 60 700 l 1,8,-1
 103 700 l 1,9,-1
 255 446 l 1,10,-1
 255 364 l 1,11,-1
 218 364 l 1,6,-1
255 336 m 1,12,-1
 255 254 l 1,13,-1
 103 0 l 1,14,-1
 60 0 l 1,15,-1
 60 73 l 1,16,-1
 218 336 l 1,17,-1
 255 336 l 1,12,-1
321 336 m 1,18,-1
 479 73 l 1,19,-1
 479 0 l 1,20,-1
 436 0 l 1,21,-1
 284 254 l 1,22,-1
 284 336 l 1,23,-1
 321 336 l 1,18,-1
EndSplineSet
Validated: 1
EndChar

StartChar: y
Encoding: 121 121 92
Width: 539
Flags: W
LayerCount: 2
Fore
SplineSet
479 392 m 1,0,-1
 452 364 l 1,1,-1
 405 411 l 1,2,-1
 405 625 l 1,3,-1
 479 700 l 1,4,-1
 479 392 l 1,0,-1
60 392 m 1,5,-1
 88 364 l 1,6,-1
 135 411 l 1,7,-1
 135 625 l 1,8,-1
 60 700 l 1,9,-1
 60 392 l 1,5,-1
148 0 m 1,10,-1
 111 37 l 1,11,-1
 148 75 l 1,12,-1
 391 75 l 1,13,-1
 428 37 l 1,14,-1
 391 0 l 1,15,-1
 148 0 l 1,10,-1
479 89 m 1,16,-1
 442 51 l 1,17,-1
 405 89 l 1,18,-1
 405 289 l 1,19,-1
 452 336 l 1,20,-1
 479 307 l 1,21,-1
 479 89 l 1,16,-1
400 387 m 1,22,-1
 438 350 l 1,23,-1
 400 313 l 1,24,-1
 139 313 l 1,25,-1
 102 350 l 1,26,-1
 139 387 l 1,27,-1
 400 387 l 1,22,-1
EndSplineSet
Validated: 9
EndChar

StartChar: z
Encoding: 122 122 93
Width: 539
Flags: W
LayerCount: 2
Fore
SplineSet
479 663 m 1,0,-1
 442 625 l 1,1,-1
 135 625 l 1,2,-1
 60 700 l 1,3,-1
 442 700 l 1,4,-1
 479 663 l 1,0,-1
465 0 m 1,5,-1
 97 0 l 1,6,-1
 60 37 l 1,7,-1
 97 75 l 1,8,-1
 391 75 l 1,9,-1
 465 0 l 1,5,-1
334 369 m 1,10,-1
 268 361 l 1,11,-1
 265 401 l 1,12,-1
 427 606 l 1,13,-1
 479 606 l 1,14,-1
 479 551 l 1,15,-1
 334 369 l 1,10,-1
211 336 m 1,16,-1
 251 340 l 1,17,-1
 260 274 l 1,18,-1
 115 93 l 1,19,-1
 60 93 l 1,20,-1
 60 145 l 1,21,-1
 211 336 l 1,16,-1
EndSplineSet
Validated: 1
EndChar

StartChar: braceleft
Encoding: 123 123 94
Width: 418
Flags: W
LayerCount: 2
Fore
SplineSet
358 700 m 1,0,-1
 284 625 l 1,1,-1
 237 625 l 1,2,-1
 200 663 l 1,3,-1
 237 700 l 1,4,-1
 358 700 l 1,0,-1
223 392 m 1,5,-1
 195 364 l 1,6,-1
 148 411 l 1,7,-1
 148 611 l 1,8,-1
 186 649 l 1,9,-1
 223 611 l 1,10,-1
 223 392 l 1,5,-1
181 350 m 1,11,-1
 143 313 l 1,12,-1
 74 313 l 1,13,-1
 36 350 l 1,14,-1
 74 387 l 1,15,-1
 143 387 l 1,16,-1
 181 350 l 1,11,-1
223 89 m 1,17,-1
 186 51 l 1,18,-1
 148 89 l 1,19,-1
 148 289 l 1,20,-1
 195 336 l 1,21,-1
 223 307 l 1,22,-1
 223 89 l 1,17,-1
358 0 m 1,23,-1
 237 0 l 1,24,-1
 200 37 l 1,25,-1
 237 75 l 1,26,-1
 284 75 l 1,27,-1
 358 0 l 1,23,-1
EndSplineSet
Validated: 1
EndChar

StartChar: bar
Encoding: 124 124 95
Width: 274
Flags: W
LayerCount: 2
Fore
SplineSet
101 -187 m 1,0,-1
 101 700 l 1,1,-1
 174 700 l 1,2,-1
 174 -187 l 1,3,-1
 101 -187 l 1,0,-1
EndSplineSet
Validated: 1
EndChar

StartChar: braceright
Encoding: 125 125 96
Width: 418
Flags: W
LayerCount: 2
Fore
SplineSet
218 663 m 1,0,-1
 181 625 l 1,1,-1
 135 625 l 1,2,-1
 60 700 l 1,3,-1
 181 700 l 1,4,-1
 218 663 l 1,0,-1
269 411 m 1,5,-1
 223 364 l 1,6,-1
 195 392 l 1,7,-1
 195 611 l 1,8,-1
 232 649 l 1,9,-1
 269 611 l 1,10,-1
 269 411 l 1,5,-1
269 89 m 1,11,-1
 232 51 l 1,12,-1
 195 89 l 1,13,-1
 195 307 l 1,14,-1
 223 336 l 1,15,-1
 269 289 l 1,16,-1
 269 89 l 1,11,-1
381 350 m 1,17,-1
 344 313 l 1,18,-1
 274 313 l 1,19,-1
 237 350 l 1,20,-1
 274 387 l 1,21,-1
 344 387 l 1,22,-1
 381 350 l 1,17,-1
218 37 m 1,23,-1
 181 0 l 1,24,-1
 60 0 l 1,25,-1
 135 75 l 1,26,-1
 181 75 l 1,27,-1
 218 37 l 1,23,-1
EndSplineSet
Validated: 1
EndChar

StartChar: asciitilde
Encoding: 126 126 97
Width: 492
Flags: W
LayerCount: 2
Fore
SplineSet
60 260 m 1,0,-1
 60 355 l 1,1,2
 80 378 80 378 102 388.5 c 128,-1,3
 124 399 124 399 149 399 c 0,4,5
 190 399 190 399 254 371 c 0,6,7
 294 354 294 354 326 354 c 0,8,9
 354 354 354 354 379 368.5 c 128,-1,10
 404 383 404 383 432 413 c 1,11,-1
 432 314 l 1,12,13
 400 271 400 271 323 271 c 0,14,15
 305 271 305 271 289.5 273 c 128,-1,16
 274 275 274 275 259 279.5 c 128,-1,17
 244 284 244 284 207 302 c 0,18,19
 180 315 180 315 161 315 c 0,20,21
 139 315 139 315 115.5 303 c 128,-1,22
 92 291 92 291 60 260 c 1,0,-1
EndSplineSet
Validated: 1
EndChar

StartChar: perthousand
Encoding: 8240 8240 98
Width: 971
Flags: W
LayerCount: 2
Fore
SplineSet
265 670 m 1,0,-1
 228 632 l 1,1,-1
 148 632 l 1,2,-1
 111 670 l 1,3,-1
 148 707 l 1,4,-1
 228 707 l 1,5,-1
 265 670 l 1,0,-1
265 427 m 1,6,-1
 228 390 l 1,7,-1
 148 390 l 1,8,-1
 111 427 l 1,9,-1
 148 465 l 1,10,-1
 228 465 l 1,11,-1
 265 427 l 1,6,-1
60 479 m 1,12,-1
 97 443 l 1,13,-1
 135 479 l 1,14,-1
 135 618 l 1,15,-1
 97 656 l 1,16,-1
 60 618 l 1,17,-1
 60 479 l 1,12,-1
241 479 m 1,18,-1
 241 618 l 1,19,-1
 279 656 l 1,20,-1
 316 618 l 1,21,-1
 316 479 l 1,22,-1
 279 443 l 1,23,-1
 241 479 l 1,18,-1
554 280 m 1,24,-1
 517 242 l 1,25,-1
 438 242 l 1,26,-1
 400 280 l 1,27,-1
 438 317 l 1,28,-1
 517 317 l 1,29,-1
 554 280 l 1,24,-1
554 37 m 1,30,-1
 517 0 l 1,31,-1
 438 0 l 1,32,-1
 400 37 l 1,33,-1
 438 75 l 1,34,-1
 517 75 l 1,35,-1
 554 37 l 1,30,-1
349 89 m 1,36,-1
 386 53 l 1,37,-1
 424 89 l 1,38,-1
 424 228 l 1,39,-1
 386 266 l 1,40,-1
 349 228 l 1,41,-1
 349 89 l 1,36,-1
531 89 m 1,42,-1
 531 228 l 1,43,-1
 568 266 l 1,44,-1
 605 228 l 1,45,-1
 605 89 l 1,46,-1
 568 53 l 1,47,-1
 531 89 l 1,42,-1
353 320 m 1,48,-1
 172 4 l 1,49,-1
 144 106 l 1,50,-1
 280 340 l 1,51,-1
 343 358 l 1,52,-1
 353 320 l 1,48,-1
340 446 m 1,53,-1
 475 680 l 1,54,-1
 578 707 l 1,55,-1
 395 393 l 1,56,-1
 357 382 l 1,57,-1
 340 446 l 1,53,-1
860 280 m 1,58,-1
 823 242 l 1,59,-1
 744 242 l 1,60,-1
 706 280 l 1,61,-1
 744 317 l 1,62,-1
 823 317 l 1,63,-1
 860 280 l 1,58,-1
860 37 m 1,64,-1
 823 0 l 1,65,-1
 744 0 l 1,66,-1
 706 37 l 1,67,-1
 744 75 l 1,68,-1
 823 75 l 1,69,-1
 860 37 l 1,64,-1
655 89 m 1,70,-1
 692 53 l 1,71,-1
 730 89 l 1,72,-1
 730 228 l 1,73,-1
 692 266 l 1,74,-1
 655 228 l 1,75,-1
 655 89 l 1,70,-1
837 89 m 1,76,-1
 837 228 l 1,77,-1
 874 266 l 1,78,-1
 911 228 l 1,79,-1
 911 89 l 1,80,-1
 874 53 l 1,81,-1
 837 89 l 1,76,-1
EndSplineSet
Validated: 9
EndChar

StartChar: quoteleft
Encoding: 8216 8216 99
Width: 194
Flags: W
LayerCount: 2
Fore
SplineSet
135 532 m 1,0,-1
 60 532 l 1,1,-1
 60 663 l 1,2,-1
 97 700 l 1,3,-1
 135 663 l 1,4,-1
 135 532 l 1,0,-1
EndSplineSet
Validated: 1
EndChar

StartChar: quoteright
Encoding: 8217 8217 100
Width: 194
Flags: W
LayerCount: 2
Fore
SplineSet
135 569 m 1,0,-1
 97 532 l 1,1,-1
 60 569 l 1,2,-1
 60 700 l 1,3,-1
 135 700 l 1,4,-1
 135 569 l 1,0,-1
EndSplineSet
Validated: 1
EndChar

StartChar: quotedblleft
Encoding: 8220 8220 101
Width: 306
Flags: W
LayerCount: 2
Fore
SplineSet
247 532 m 1,0,-1
 172 532 l 1,1,-1
 172 663 l 1,2,-1
 209 700 l 1,3,-1
 247 663 l 1,4,-1
 247 532 l 1,0,-1
135 532 m 1,5,-1
 60 532 l 1,6,-1
 60 663 l 1,7,-1
 97 700 l 1,8,-1
 135 663 l 1,9,-1
 135 532 l 1,5,-1
EndSplineSet
Validated: 1
EndChar

StartChar: quotedblright
Encoding: 8221 8221 102
Width: 306
Flags: W
LayerCount: 2
Fore
SplineSet
135 569 m 1,0,-1
 97 532 l 1,1,-1
 60 569 l 1,2,-1
 60 700 l 1,3,-1
 135 700 l 1,4,-1
 135 569 l 1,0,-1
247 569 m 1,5,-1
 209 532 l 1,6,-1
 172 569 l 1,7,-1
 172 700 l 1,8,-1
 247 700 l 1,9,-1
 247 569 l 1,5,-1
EndSplineSet
Validated: 1
EndChar

StartChar: bullet
Encoding: 8226 8226 103
Width: 539
Flags: W
LayerCount: 2
Fore
SplineSet
60 350 m 0,0,1
 60 437 60 437 121.5 498.5 c 128,-1,2
 183 560 183 560 269 560 c 0,3,4
 357 560 357 560 418 499 c 128,-1,5
 479 438 479 438 479 350 c 0,6,7
 479 263 479 263 417.5 201.5 c 128,-1,8
 356 140 356 140 269 140 c 256,9,10
 182 140 182 140 121 201 c 128,-1,11
 60 262 60 262 60 350 c 0,0,1
EndSplineSet
Validated: 1
EndChar

StartChar: endash
Encoding: 8211 8211 104
Width: 558
Flags: W
LayerCount: 2
Fore
SplineSet
505 387 m 1,0,-1
 543 350 l 1,1,-1
 505 313 l 1,2,-1
 49 313 l 1,3,-1
 11 350 l 1,4,-1
 49 387 l 1,5,-1
 505 387 l 1,0,-1
EndSplineSet
Validated: 1
EndChar

StartChar: emdash
Encoding: 8212 8212 105
Width: 981
Flags: W
LayerCount: 2
Fore
SplineSet
931 387 m 1,0,-1
 968 350 l 1,1,-1
 931 313 l 1,2,-1
 49 313 l 1,3,-1
 11 350 l 1,4,-1
 49 387 l 1,5,-1
 931 387 l 1,0,-1
EndSplineSet
Validated: 1
EndChar
